<svg width="1920" height="717" viewBox="0 0 1920 717" fill="none" xmlns="http://www.w3.org/2000/svg">
<rect width="1920" height="717" fill="#69564F"/>
<path d="M654.766 316.219H703.805L702.349 323.062L737.703 327.625L744.291 382.941H692.401L635.379 338.46L654.766 316.219Z" fill="white"/>
<path d="M718.764 366.333V285.184L1218.42 366.333H1226.96C1240.92 412.93 1222.69 447.482 1222.69 447.482C1154.36 494.462 1026.25 486.595 974.999 473.108C886.359 449.779 785.348 401.19 718.764 366.333Z" fill="#FF3E00"/>
<path d="M659.328 305.384C676.435 305.384 687.108 303.298 711.936 309.659L710.224 353.52C710.224 353.52 656.477 335.608 656.477 330.476C656.477 324.31 658.977 319.352 658.977 319.352C658.977 319.352 646.181 320.781 646.181 330.476C646.181 340.171 668.241 343.329 719.772 366.974C771.303 390.618 775.268 393.029 825.263 414.877C878.455 438.121 915.212 451.752 975.001 468.836C1034.79 485.92 1111.66 481.649 1145.82 473.107C1178.97 464.82 1205.61 451.752 1222.69 443.21L1226.96 362.062H1235.51V344.978C1286.75 344.978 1338 387.688 1338 447.481C1338 542.581 1230.96 564.431 1154.37 566C966.458 566 612.001 428.464 612 349.249C612 319.352 642.222 305.384 659.328 305.384Z" fill="black"/>
<path d="M727.308 199.764C714.496 268.099 718.767 306.538 718.767 306.538C752.931 336.435 907.05 409.042 1039.06 409.042C1128.74 409.042 1184.26 404.771 1226.97 370.603V340.706V238.203C1226.97 127.157 1115.64 76.0537 1021.64 72.8254C927.631 69.5972 940.837 71.634 906.673 71.634C791.367 71.634 740.121 131.428 727.308 199.764Z" fill="black"/>
<path d="M1270.16 488.561C1334.07 459.137 1332.31 410.466 1320.92 391.958C1342.27 417.584 1337.41 470.944 1267 503.36C1220.18 524.914 1107.91 531.988 886.847 441.68C1042.2 495.52 1178.42 530.798 1270.16 488.561Z" fill="white"/>
</svg>
