<svg width="1024" height="575" viewBox="0 0 1024 575" fill="none" xmlns="http://www.w3.org/2000/svg">
<g clip-path="url(#clip0)">
<rect width="1024" height="575" fill="white"/>
<rect width="1024" height="575" fill="#FCFDF4"/>
<circle cx="-769" cy="32" r="1146" fill="#211F1E"/>
<path d="M105.955 81.0909H96.4773V99.3636H96.2045L83.7955 81.0909H75.75V116H85.2273V97.6591H85.4318L98.0455 116H105.955V81.0909ZM123.119 116.477C130.381 116.477 135.051 113 135.938 107.545H127.347C126.801 109.028 125.25 109.864 123.324 109.864C120.528 109.864 118.892 108.023 118.892 105.5V105.091H135.938V102.909C135.938 94.5739 130.824 89.4773 122.915 89.4773C114.801 89.4773 109.619 94.8636 109.619 102.977C109.619 111.449 114.733 116.477 123.119 116.477ZM118.892 99.9091C118.943 97.642 120.818 96.0909 123.119 96.0909C125.455 96.0909 127.227 97.6591 127.278 99.9091H118.892ZM144.085 116H154.244L157.926 101.955H158.199L161.881 116H172.04L178.585 89.8182H169.176L166.312 105.636H166.108L162.631 89.8182H153.494L150.153 105.773H149.949L146.949 89.8182H137.54L144.085 116ZM189.443 81.0909L202.261 105.023V116H211.67V105.023L224.489 81.0909H213.92L207.102 95.2727H206.83L200.011 81.0909H189.443ZM233.719 116.477C242.241 116.477 247.287 111.023 247.287 102.977C247.287 94.9318 242.241 89.4773 233.719 89.4773C225.196 89.4773 220.151 94.9318 220.151 102.977C220.151 111.023 225.196 116.477 233.719 116.477ZM233.787 109.523C231.264 109.523 229.764 107.017 229.764 102.909C229.764 98.8011 231.264 96.2955 233.787 96.2955C236.173 96.2955 237.673 98.8011 237.673 102.909C237.673 107.017 236.173 109.523 233.787 109.523ZM251.105 116H260.514V102.364C260.514 99.3636 262.577 97.3864 265.355 97.3864C266.327 97.3864 267.895 97.5398 268.832 97.8636V89.8352C268.082 89.6136 267.264 89.4773 266.446 89.4773C263.651 89.4773 261.469 91.1136 260.514 94.7955H260.241V89.8182H251.105V116ZM271.918 116H281.327V108.568L282.741 106.778L288.077 116H298.849L289.679 101.29L298.577 89.8182H288.009L281.668 98.6136H281.327V81.0909H271.918V116ZM83.2159 135.091H84.9205C84.8423 132.896 82.8182 131.256 80.0057 131.256C77.2216 131.256 75.0341 132.875 75.0341 135.318C75.0341 137.278 76.4545 138.443 78.7273 139.097L80.517 139.608C82.0511 140.034 83.4148 140.574 83.4148 142.023C83.4148 143.614 81.8807 144.665 79.8636 144.665C78.1307 144.665 76.5966 143.898 76.4545 142.25H74.6364C74.8068 144.636 76.7386 146.256 79.8636 146.256C83.2159 146.256 85.1193 144.409 85.1193 142.051C85.1193 139.324 82.5341 138.443 81.0284 138.045L79.5511 137.648C78.4716 137.364 76.7386 136.795 76.7386 135.233C76.7386 133.841 78.017 132.818 79.9489 132.818C81.7102 132.818 83.0455 133.656 83.2159 135.091ZM96.7085 135.091H94.8903L91.8789 143.784H91.7653L88.7539 135.091H86.9357L90.9698 146H92.6744L96.7085 135.091ZM103.104 146.227C105.32 146.227 106.939 145.119 107.451 143.472L105.831 143.017C105.405 144.153 104.418 144.722 103.104 144.722C101.137 144.722 99.7802 143.45 99.7021 141.114H107.621V140.403C107.621 136.341 105.206 134.949 102.934 134.949C99.979 134.949 98.0188 137.278 98.0188 140.631C98.0188 143.983 99.9506 146.227 103.104 146.227ZM99.7021 139.665C99.8157 137.967 101.016 136.455 102.934 136.455C104.752 136.455 105.917 137.818 105.917 139.665H99.7021ZM111.847 131.455H110.171V146H111.847V131.455ZM119.661 135.091H117.332V132.477H115.656V135.091H114.008V136.511H115.656V143.33C115.656 145.233 117.19 146.142 118.61 146.142C119.235 146.142 119.633 146.028 119.86 145.943L119.519 144.438C119.377 144.466 119.15 144.523 118.781 144.523C118.042 144.523 117.332 144.295 117.332 142.875V136.511H119.661V135.091ZM126.639 146.227C128.855 146.227 130.474 145.119 130.986 143.472L129.366 143.017C128.94 144.153 127.953 144.722 126.639 144.722C124.672 144.722 123.315 143.45 123.237 141.114H131.156V140.403C131.156 136.341 128.741 134.949 126.469 134.949C123.514 134.949 121.554 137.278 121.554 140.631C121.554 143.983 123.486 146.227 126.639 146.227ZM123.237 139.665C123.351 137.967 124.551 136.455 126.469 136.455C128.287 136.455 129.452 137.818 129.452 139.665H123.237ZM147.513 135.091H149.217C149.139 132.896 147.115 131.256 144.303 131.256C141.518 131.256 139.331 132.875 139.331 135.318C139.331 137.278 140.751 138.443 143.024 139.097L144.814 139.608C146.348 140.034 147.712 140.574 147.712 142.023C147.712 143.614 146.178 144.665 144.161 144.665C142.428 144.665 140.893 143.898 140.751 142.25H138.933C139.104 144.636 141.036 146.256 144.161 146.256C147.513 146.256 149.416 144.409 149.416 142.051C149.416 139.324 146.831 138.443 145.325 138.045L143.848 137.648C142.768 137.364 141.036 136.795 141.036 135.233C141.036 133.841 142.314 132.818 144.246 132.818C146.007 132.818 147.342 133.656 147.513 135.091ZM156.517 146.227C159.471 146.227 161.46 143.983 161.46 140.602C161.46 137.193 159.471 134.949 156.517 134.949C153.562 134.949 151.574 137.193 151.574 140.602C151.574 143.983 153.562 146.227 156.517 146.227ZM156.517 144.722C154.272 144.722 153.25 142.79 153.25 140.602C153.25 138.415 154.272 136.455 156.517 136.455C158.761 136.455 159.784 138.415 159.784 140.602C159.784 142.79 158.761 144.722 156.517 144.722ZM168.45 146.227C170.865 146.227 172.456 144.75 172.74 142.818H171.064C170.751 144.011 169.757 144.722 168.45 144.722C166.462 144.722 165.183 143.074 165.183 140.545C165.183 138.074 166.49 136.455 168.45 136.455C169.928 136.455 170.808 137.364 171.064 138.358H172.74C172.456 136.312 170.723 134.949 168.422 134.949C165.467 134.949 163.507 137.278 163.507 140.602C163.507 143.869 165.382 146.227 168.45 146.227ZM175.19 146H176.866V135.091H175.19V146ZM176.043 133.273C176.696 133.273 177.236 132.761 177.236 132.136C177.236 131.511 176.696 131 176.043 131C175.389 131 174.849 131.511 174.849 132.136C174.849 132.761 175.389 133.273 176.043 133.273ZM184.51 146.227C186.726 146.227 188.346 145.119 188.857 143.472L187.238 143.017C186.811 144.153 185.824 144.722 184.51 144.722C182.543 144.722 181.186 143.45 181.108 141.114H189.027V140.403C189.027 136.341 186.613 134.949 184.34 134.949C181.385 134.949 179.425 137.278 179.425 140.631C179.425 143.983 181.357 146.227 184.51 146.227ZM181.108 139.665C181.222 137.967 182.422 136.455 184.34 136.455C186.158 136.455 187.323 137.818 187.323 139.665H181.108ZM196.321 135.091H193.992V132.477H192.316V135.091H190.668V136.511H192.316V143.33C192.316 145.233 193.85 146.142 195.27 146.142C195.895 146.142 196.293 146.028 196.52 145.943L196.179 144.438C196.037 144.466 195.81 144.523 195.441 144.523C194.702 144.523 193.992 144.295 193.992 142.875V136.511H196.321V135.091ZM199.922 150.062C201.435 150.062 202.507 149.26 203.132 147.591L207.777 135.119L205.945 135.091L202.934 143.784H202.82L199.809 135.091H197.99L202.025 146.057L201.712 146.909C201.115 148.543 200.348 148.699 199.127 148.386L198.701 149.864C198.871 149.949 199.354 150.062 199.922 150.062ZM215.847 131.455V146H217.495V134.949H217.637L222.183 146H223.773L228.319 134.949H228.461V146H230.109V131.455H228.006L223.063 143.528H222.893L217.95 131.455H215.847ZM237.987 146.227C240.203 146.227 241.822 145.119 242.333 143.472L240.714 143.017C240.288 144.153 239.301 144.722 237.987 144.722C236.02 144.722 234.663 143.45 234.585 141.114H242.504V140.403C242.504 136.341 240.089 134.949 237.816 134.949C234.862 134.949 232.902 137.278 232.902 140.631C232.902 143.983 234.833 146.227 237.987 146.227ZM234.585 139.665C234.699 137.967 235.899 136.455 237.816 136.455C239.635 136.455 240.799 137.818 240.799 139.665H234.585ZM249.627 146.227C251.843 146.227 253.463 145.119 253.974 143.472L252.355 143.017C251.929 144.153 250.941 144.722 249.627 144.722C247.66 144.722 246.304 143.45 246.225 141.114H254.145V140.403C254.145 136.341 251.73 134.949 249.457 134.949C246.502 134.949 244.542 137.278 244.542 140.631C244.542 143.983 246.474 146.227 249.627 146.227ZM246.225 139.665C246.339 137.967 247.539 136.455 249.457 136.455C251.275 136.455 252.44 137.818 252.44 139.665H246.225ZM261.439 135.091H259.109V132.477H257.433V135.091H255.785V136.511H257.433V143.33C257.433 145.233 258.967 146.142 260.387 146.142C261.012 146.142 261.41 146.028 261.637 145.943L261.297 144.438C261.154 144.466 260.927 144.523 260.558 144.523C259.819 144.523 259.109 144.295 259.109 142.875V136.511H261.439V135.091ZM270.835 141.54C270.835 143.585 269.272 144.523 268.022 144.523C266.63 144.523 265.636 143.5 265.636 141.909V135.091H263.96V142.023C263.96 144.807 265.437 146.142 267.483 146.142C269.13 146.142 270.21 145.261 270.721 144.153H270.835V146H272.511V135.091H270.835V141.54ZM275.581 150.091H277.257V144.324H277.399C277.768 144.92 278.479 146.227 280.581 146.227C283.308 146.227 285.212 144.04 285.212 140.574C285.212 137.136 283.308 134.949 280.553 134.949C278.422 134.949 277.768 136.256 277.399 136.824H277.2V135.091H275.581V150.091ZM277.229 140.545C277.229 138.102 278.308 136.455 280.354 136.455C282.484 136.455 283.536 138.244 283.536 140.545C283.536 142.875 282.456 144.722 280.354 144.722C278.337 144.722 277.229 143.017 277.229 140.545Z" fill="white"/>
<path d="M75.25 218.091V253H84.5227V232.682H84.7955L92.5682 252.727H98.1591L105.932 232.818H106.205V253H115.477V218.091H103.682L95.5682 237.864H95.1591L87.0455 218.091H75.25ZM127.401 253.409C130.81 253.409 133.384 252.25 134.969 249.318H135.173V253H143.969V235.068C143.969 230.227 139.384 226.477 131.901 226.477C124.077 226.477 120.224 230.568 119.901 235.341H128.56C128.781 233.722 129.974 232.955 131.764 232.955C133.401 232.955 134.56 233.705 134.56 235.068V235.136C134.56 236.653 132.889 237.131 128.491 237.455C123.088 237.847 118.878 240.028 118.878 245.773C118.878 250.989 122.389 253.409 127.401 253.409ZM130.469 247.477C128.866 247.477 127.741 246.693 127.741 245.227C127.741 243.881 128.696 242.841 130.878 242.5C132.378 242.261 133.639 241.955 134.628 241.545V243.727C134.628 246.114 132.599 247.477 130.469 247.477ZM148.464 253H157.874V239.364C157.874 236.364 159.936 234.386 162.714 234.386C163.686 234.386 165.254 234.54 166.192 234.864V226.835C165.442 226.614 164.624 226.477 163.805 226.477C161.01 226.477 158.828 228.114 157.874 231.795H157.601V226.818H148.464V253ZM180.391 253.477C188.146 253.477 192.902 249.028 193.004 242.091H184.277C184.072 244.835 182.589 246.318 180.527 246.318C178.055 246.318 176.436 244.205 176.436 239.909C176.436 235.614 178.055 233.5 180.527 233.5C182.607 233.5 184.021 234.983 184.277 237.727H193.004C192.953 230.909 188.095 226.477 180.391 226.477C171.868 226.477 166.822 231.932 166.822 239.977C166.822 248.023 171.868 253.477 180.391 253.477ZM206.295 238.273C206.312 235.682 207.812 234.114 210.114 234.114C212.517 234.114 213.881 235.682 213.864 238.273V253H223.273V236.295C223.29 230.568 219.676 226.477 214.136 226.477C210.267 226.477 207.403 228.455 206.227 231.795H205.955V218.091H196.886V253H206.295V238.273ZM251.389 253.477C259.895 253.477 265.452 248.312 265.435 241C265.452 234.369 260.815 229.682 254.594 229.682C251.048 229.682 248.185 231.25 247.094 233.364H246.889L247.571 225.659H263.253V218.091H239.798L238.435 237.318L246.753 238.955C247.554 237.25 249.378 236.227 251.389 236.227C254.287 236.227 256.315 238.222 256.298 241.273C256.315 244.324 254.287 246.318 251.389 246.318C248.884 246.318 246.821 244.784 246.753 242.364H237.548C237.599 248.875 243.344 253.477 251.389 253.477ZM74.5057 283H83.6818V281.438H76.9205V281.324L80.1875 277.83C82.6875 275.152 83.4261 273.902 83.4261 272.29C83.4261 270.045 81.608 268.256 79.0511 268.256C76.5014 268.256 74.5625 269.989 74.5625 272.545H76.2386C76.2386 270.891 77.3111 269.79 78.9943 269.79C80.571 269.79 81.7784 270.756 81.7784 272.29C81.7784 273.632 80.9901 274.626 79.3068 276.466L74.5057 281.722V283ZM91.3594 283.199C94.5696 283.199 96.4162 280.479 96.4162 275.727C96.4162 271.011 94.5412 268.256 91.3594 268.256C88.1776 268.256 86.3026 271.011 86.3026 275.727C86.3026 280.479 88.1491 283.199 91.3594 283.199ZM91.3594 281.636C89.2429 281.636 88.0071 279.513 88.0071 275.727C88.0071 271.949 89.2571 269.79 91.3594 269.79C93.4616 269.79 94.7116 271.949 94.7116 275.727C94.7116 279.513 93.4759 281.636 91.3594 281.636ZM99.1151 283H108.291V281.438H101.53V281.324L104.797 277.83C107.297 275.152 108.036 273.902 108.036 272.29C108.036 270.045 106.217 268.256 103.661 268.256C101.111 268.256 99.1719 269.989 99.1719 272.545H100.848C100.848 270.891 101.92 269.79 103.604 269.79C105.18 269.79 106.388 270.756 106.388 272.29C106.388 273.632 105.599 274.626 103.916 276.466L99.1151 281.722V283ZM115.969 283.199C119.179 283.199 121.026 280.479 121.026 275.727C121.026 271.011 119.151 268.256 115.969 268.256C112.787 268.256 110.912 271.011 110.912 275.727C110.912 280.479 112.759 283.199 115.969 283.199ZM115.969 281.636C113.852 281.636 112.616 279.513 112.616 275.727C112.616 271.949 113.866 269.79 115.969 269.79C118.071 269.79 119.321 271.949 119.321 275.727C119.321 279.513 118.085 281.636 115.969 281.636ZM125.745 281.011H123.927L123.842 281.807C123.636 283.732 123.231 285.649 123.046 286.551H124.325C124.665 285.585 125.39 283.398 125.631 281.778L125.745 281.011ZM133.907 270.017H138.481V283H140.243V270.017H144.816V268.455H133.907V270.017ZM148.984 276.438C148.984 274.534 150.198 273.455 151.853 273.455C153.43 273.455 154.381 274.449 154.381 276.182V283H156.058V276.068C156.058 273.263 154.566 271.949 152.336 271.949C150.617 271.949 149.637 272.666 149.126 273.795H148.984V268.455H147.308V283H148.984V276.438ZM165.999 278.54C165.999 280.585 164.436 281.523 163.186 281.523C161.794 281.523 160.8 280.5 160.8 278.909V272.091H159.124V279.023C159.124 281.807 160.601 283.142 162.647 283.142C164.294 283.142 165.374 282.261 165.885 281.153H165.999V283H167.675V272.091H165.999V278.54ZM170.745 283H172.421V276.097C172.421 274.619 173.586 273.54 175.177 273.54C175.624 273.54 176.086 273.625 176.2 273.653V271.949C176.008 271.935 175.567 271.92 175.319 271.92C174.012 271.92 172.876 272.659 172.478 273.739H172.364V272.091H170.745V283ZM185.914 274.534C185.388 272.986 184.209 271.949 182.05 271.949C179.749 271.949 178.044 273.256 178.044 275.102C178.044 276.608 178.939 277.616 180.942 278.085L182.76 278.511C183.861 278.767 184.38 279.293 184.38 280.045C184.38 280.983 183.385 281.75 181.823 281.75C180.452 281.75 179.593 281.161 179.294 279.989L177.703 280.386C178.094 282.24 179.621 283.227 181.851 283.227C184.387 283.227 186.113 281.842 186.113 279.96C186.113 278.44 185.161 277.482 183.215 277.006L181.596 276.608C180.303 276.288 179.721 275.855 179.721 275.017C179.721 274.08 180.715 273.398 182.05 273.398C183.513 273.398 184.117 274.207 184.408 274.96L185.914 274.534ZM192.755 283.227C194.857 283.227 195.567 281.92 195.937 281.324H196.136V283H197.755V268.455H196.079V273.824H195.937C195.567 273.256 194.914 271.949 192.783 271.949C190.028 271.949 188.124 274.136 188.124 277.574C188.124 281.04 190.028 283.227 192.755 283.227ZM192.982 281.722C190.88 281.722 189.8 279.875 189.8 277.545C189.8 275.244 190.852 273.455 192.982 273.455C195.028 273.455 196.107 275.102 196.107 277.545C196.107 280.017 194.999 281.722 192.982 281.722ZM204.268 283.256C206.171 283.256 207.165 282.233 207.506 281.523H207.592V283H209.268V275.812C209.268 272.347 206.626 271.949 205.234 271.949C203.586 271.949 201.711 272.517 200.859 274.506L202.45 275.074C202.819 274.278 203.692 273.426 205.29 273.426C206.832 273.426 207.592 274.243 207.592 275.642V275.699C207.592 276.509 206.768 276.438 204.779 276.693C202.755 276.956 200.546 277.403 200.546 279.903C200.546 282.034 202.194 283.256 204.268 283.256ZM204.523 281.75C203.188 281.75 202.222 281.153 202.222 279.989C202.222 278.71 203.387 278.312 204.694 278.142C205.404 278.057 207.308 277.858 207.592 277.517V279.051C207.592 280.415 206.512 281.75 204.523 281.75ZM213.016 287.062C214.529 287.062 215.601 286.26 216.226 284.591L220.871 272.119L219.039 272.091L216.027 280.784H215.914L212.902 272.091H211.084L215.118 283.057L214.806 283.909C214.209 285.543 213.442 285.699 212.221 285.386L211.794 286.864C211.965 286.949 212.448 287.062 213.016 287.062Z" fill="white"/>
<path d="M89.9091 390.477C98.1591 390.477 103.92 385.517 103.886 378C103.92 371.608 99.642 366.955 93.3182 366.955C89.3295 366.955 85.7159 368.864 84.3864 372.068H84.1818C84.2159 366.29 85.9886 362.523 89.9773 362.523C91.9716 362.523 93.7102 363.409 94.1364 365.523H103.477C102.881 359.42 97.6818 354.477 89.9773 354.477C80.8239 354.477 74.8068 361.5 74.7727 372.955C74.8068 385.636 81.7614 390.477 89.9091 390.477ZM89.8409 383.318C87.0795 383.318 85.0341 381.222 85 378.341C85.0341 375.46 87.0795 373.364 89.8409 373.364C92.6705 373.364 94.7159 375.46 94.6818 378.341C94.7159 381.222 92.6705 383.318 89.8409 383.318ZM117.679 386.216C120.185 386.216 122.418 384.102 122.452 381.443C122.418 378.852 120.185 376.739 117.679 376.739C115.037 376.739 112.873 378.852 112.907 381.443C112.873 384.102 115.037 386.216 117.679 386.216ZM117.679 369.443C120.185 369.443 122.418 367.33 122.452 364.67C122.418 362.08 120.185 359.966 117.679 359.966C115.037 359.966 112.873 362.08 112.907 364.67C112.873 367.33 115.037 369.443 117.679 369.443ZM145.454 390.477C153.994 390.477 160.011 386.131 159.977 379.977C160.011 375.699 157.147 372.682 151.522 372.068V371.795C155.681 371.352 158.715 368.676 158.681 364.773C158.715 358.892 153.261 354.614 145.522 354.614C137.613 354.614 131.988 359.131 131.954 365.523H141.022C141.056 363.409 142.914 361.909 145.522 361.909C147.908 361.909 149.579 363.358 149.545 365.386C149.579 367.5 147.602 369 144.772 369H141.227V375.545H144.772C147.84 375.545 149.988 377.045 149.954 379.159C149.988 381.324 148.147 382.841 145.522 382.841C142.795 382.841 140.852 381.392 140.818 379.364H131.272C131.306 385.875 137.187 390.477 145.454 390.477ZM183.733 390.955C193.227 390.972 199.125 384.17 199.142 372.614C199.159 361.125 193.227 354.614 183.733 354.614C174.221 354.614 168.358 361.091 168.324 372.614C168.29 384.119 174.221 390.938 183.733 390.955ZM183.733 383.25C180.46 383.25 178.108 379.96 178.142 372.614C178.176 365.438 180.46 362.25 183.733 362.25C187.005 362.25 189.307 365.438 189.324 372.614C189.341 379.96 187.005 383.25 183.733 383.25ZM74.5852 417H76.1705V412.219H79.0341C82.0831 412.219 83.4574 410.365 83.4574 408.051C83.4574 405.737 82.0831 403.909 79.0085 403.909H74.5852V417ZM76.1705 410.812V405.315H78.9574C81.0859 405.315 81.8977 406.479 81.8977 408.051C81.8977 409.624 81.0859 410.812 78.983 410.812H76.1705ZM87.631 403.909V417H89.114V407.054H89.2418L93.3327 417H94.7645L98.8554 407.054H98.9833V417H100.466V403.909H98.5742L94.1253 414.776H93.9719L89.5231 403.909H87.631ZM111.947 417H119.95V415.594H113.532V411.145H119.439V409.739H113.532V405.315H119.848V403.909H111.947V417ZM131.484 407.182H133.018C132.948 405.207 131.126 403.73 128.595 403.73C126.089 403.73 124.12 405.188 124.12 407.386C124.12 409.151 125.399 410.199 127.444 410.787L129.055 411.247C130.436 411.631 131.663 412.116 131.663 413.42C131.663 414.852 130.282 415.798 128.467 415.798C126.907 415.798 125.527 415.108 125.399 413.625H123.762C123.916 415.773 125.655 417.23 128.467 417.23C131.484 417.23 133.197 415.568 133.197 413.446C133.197 410.991 130.87 410.199 129.515 409.841L128.186 409.483C127.214 409.227 125.655 408.716 125.655 407.31C125.655 406.057 126.805 405.136 128.544 405.136C130.129 405.136 131.331 405.891 131.484 407.182ZM136.708 405.315H140.824V417H142.409V405.315H146.526V403.909H136.708V405.315Z" fill="white"/>
<path d="M496.904 73.2521C490.24 63.6407 477.08 60.7921 467.566 66.9026L450.857 77.638C448.601 79.066 446.666 80.9524 445.175 83.1768C443.683 85.4011 442.668 87.9146 442.194 90.5566C441.395 95.0159 442.094 99.6165 444.18 103.63C442.751 105.817 441.776 108.274 441.316 110.852C440.839 113.552 440.902 116.322 441.502 118.997C442.102 121.673 443.226 124.2 444.808 126.432C451.472 136.043 464.632 138.892 474.146 132.781L490.856 122.091C493.108 120.66 495.041 118.773 496.532 116.549C498.024 114.325 499.04 111.813 499.518 109.172C500.314 104.714 499.613 100.116 497.525 96.1052C498.954 93.9173 499.931 91.4611 500.396 88.8837C500.871 86.1832 500.808 83.4141 500.208 80.7388C499.608 78.0634 498.485 75.5357 496.904 73.3038" fill="#FF3E00"/>
<path d="M466.24 126.951C463.597 127.629 460.807 127.489 458.247 126.55C455.686 125.611 453.479 123.917 451.923 121.698C450.967 120.376 450.288 118.878 449.927 117.292C449.565 115.707 449.528 114.066 449.817 112.466C449.912 111.946 450.046 111.433 450.216 110.932L450.532 109.977L451.395 110.613C453.378 112.045 455.591 113.134 457.942 113.835L458.586 114.02L458.528 114.656C458.466 115.529 458.714 116.396 459.229 117.108C459.699 117.775 460.364 118.284 461.135 118.567C461.907 118.849 462.747 118.891 463.543 118.687C463.907 118.59 464.254 118.44 464.573 118.241L481.337 107.659C481.749 107.403 482.102 107.064 482.373 106.665C482.645 106.266 482.829 105.815 482.914 105.342C483 104.859 482.987 104.364 482.877 103.886C482.766 103.408 482.56 102.957 482.27 102.559C481.801 101.892 481.135 101.383 480.364 101.1C479.593 100.818 478.753 100.776 477.957 100.98C477.593 101.076 477.245 101.226 476.927 101.426L470.489 105.469C469.436 106.129 468.288 106.627 467.084 106.946C464.445 107.62 461.66 107.479 459.105 106.541C456.55 105.603 454.347 103.914 452.792 101.7C451.839 100.376 451.163 98.878 450.804 97.2927C450.444 95.7074 450.409 94.0671 450.699 92.468C450.984 90.8985 451.596 89.4049 452.497 88.0827C453.398 86.7606 454.569 85.639 455.933 84.7896L472.749 74.208C473.796 73.5491 474.937 73.051 476.135 72.7309C478.777 72.0521 481.567 72.1919 484.126 73.1312C486.685 74.0706 488.892 75.7643 490.446 77.9835C491.403 79.3053 492.083 80.803 492.446 82.3884C492.808 83.9739 492.846 85.6151 492.558 87.2154C492.458 87.7388 492.324 88.2555 492.159 88.7625L491.837 89.7176L490.981 89.0809C488.994 87.6383 486.773 86.5403 484.414 85.8338L483.77 85.6492L483.828 85.0125C483.903 84.1352 483.661 83.2602 483.146 82.5422C482.673 81.8861 482.01 81.3879 481.244 81.1138C480.478 80.8397 479.646 80.8027 478.858 81.0078C478.494 81.1033 478.147 81.2536 477.828 81.4534L461.032 92.016C460.622 92.2724 460.27 92.6102 459.998 93.008C459.727 93.4058 459.542 93.855 459.455 94.3271C459.371 94.811 459.384 95.3065 459.495 95.7851C459.605 96.2638 459.81 96.716 460.099 97.1158C460.566 97.7773 461.226 98.2826 461.99 98.5646C462.755 98.8466 463.588 98.892 464.38 98.6948C464.743 98.5967 465.09 98.4465 465.41 98.2491L471.848 94.2125C472.9 93.545 474.051 93.0445 475.26 92.7291C477.901 92.0487 480.69 92.187 483.25 93.1253C485.809 94.0635 488.016 95.7565 489.571 97.9753C490.527 99.2974 491.206 100.795 491.569 102.38C491.932 103.966 491.97 105.607 491.682 107.207C491.398 108.777 490.786 110.27 489.885 111.592C488.983 112.915 487.813 114.036 486.448 114.886L469.652 125.467C468.597 126.13 467.447 126.63 466.24 126.951Z" fill="white"/>
<g filter="url(#filter0_d)">
<path d="M461.138 65.1186C462.405 64.8846 464.821 65.4208 466.615 66.3996L465.691 70.0841C465.691 70.0841 462.79 68.7437 461.864 67.2771C461.602 66.8615 462.333 66.109 462.333 66.109C462.333 66.109 461.313 66.0688 461.146 66.9371C460.979 67.8055 461.465 68.661 465.733 70.4927C470.002 72.3244 469.51 74.2145 472.944 76.8837C476.598 79.7236 479.533 81.3676 483.817 83.861C488.101 86.3544 494.125 87.5332 496.932 87.5438C499.656 87.5541 501.971 87.0674 503.459 86.7427L505.381 80.557L506.041 80.7247L506.376 79.4048C510.336 80.4106 513.458 84.7162 512.284 89.3359C510.418 96.6832 501.718 96.2704 495.769 94.8883C481.25 91.2001 456.562 73.617 458.116 67.4968C458.703 65.187 459.871 65.3526 461.138 65.1186Z" fill="black"/>
</g>
<path d="M466.03 70.9131L467.623 64.6436L504.637 80.7202L505.297 80.8878C505.461 84.7618 503.375 87.0735 503.375 87.0735C497.173 89.3621 487.428 86.2396 483.733 84.1917C477.342 80.6496 469.895 75.0564 466.03 70.9131Z" fill="#FF3E00"/>
<path d="M469.959 58.2112C467.628 63.2394 467.204 66.293 467.204 66.293C469.257 69.2734 479.74 77.9079 489.94 80.499C496.87 82.2592 501.243 83.0189 505.214 81.2173L505.8 78.9075L507.812 70.9881C509.991 62.4087 499.202 55.1015 494.912 54.0118C492.63 53.3151 488.973 52.503 486.333 51.8325C477.424 49.5693 472.29 53.1831 469.959 58.2112Z" fill="black"/>
<path d="M506.236 91.179C511.752 90.1602 512.571 86.3651 512.054 84.7117C513.201 87.1107 511.778 91.1379 505.701 92.2603C501.661 93.0066 493.275 91.9354 477.967 80.6193C488.914 87.8282 498.318 92.6415 506.236 91.179Z" fill="white"/>
<path d="M752.011 92H754.472V87.875H756.267L758.472 92H761.188L758.716 87.4773C760.04 86.9091 760.773 85.7557 760.773 84.1648C760.773 81.8523 759.244 80.3636 756.602 80.3636H752.011V92ZM754.472 85.8977V82.375H756.131C757.551 82.375 758.239 83.0057 758.239 84.1648C758.239 85.3182 757.551 85.8977 756.142 85.8977H754.472ZM763.551 92H771.415V89.9716H766.012V87.1932H770.989V85.1648H766.012V82.392H771.392V80.3636H763.551V92ZM782.104 84.125H784.604C784.286 81.8239 782.258 80.2045 779.627 80.2045C776.553 80.2045 774.184 82.4205 774.184 86.1932C774.184 89.875 776.4 92.1591 779.678 92.1591C782.616 92.1591 784.712 90.3011 784.712 87.2386V85.7727H779.843V87.625H782.343C782.309 89.0682 781.326 89.983 779.689 89.983C777.843 89.983 776.678 88.6023 776.678 86.1705C776.678 83.75 777.888 82.3807 779.667 82.3807C780.934 82.3807 781.792 83.0341 782.104 84.125ZM790.06 80.3636H787.6V92H790.06V80.3636ZM799.437 83.7102H801.795C801.761 81.6364 800.056 80.2045 797.465 80.2045C794.914 80.2045 793.045 81.6136 793.056 83.7273C793.051 85.4432 794.261 86.4261 796.227 86.8977L797.494 87.2159C798.761 87.5227 799.465 87.8864 799.471 88.6705C799.465 89.5227 798.659 90.1023 797.409 90.1023C796.13 90.1023 795.21 89.5114 795.13 88.3466H792.749C792.812 90.8636 794.613 92.1648 797.437 92.1648C800.278 92.1648 801.948 90.8068 801.954 88.6761C801.948 86.7386 800.488 85.7102 798.465 85.2557L797.42 85.0057C796.409 84.7727 795.562 84.3977 795.579 83.5625C795.579 82.8125 796.244 82.2614 797.448 82.2614C798.624 82.2614 799.346 82.7955 799.437 83.7102ZM804.206 82.392H807.768V92H810.2V82.392H813.763V80.3636H804.206V82.392ZM816.376 92H824.24V89.9716H818.837V87.1932H823.814V85.1648H818.837V82.392H824.217V80.3636H816.376V92ZM827.213 92H829.673V87.875H831.469L833.673 92H836.389L833.918 87.4773C835.242 86.9091 835.975 85.7557 835.975 84.1648C835.975 81.8523 834.446 80.3636 831.804 80.3636H827.213V92ZM829.673 85.8977V82.375H831.333C832.753 82.375 833.441 83.0057 833.441 84.1648C833.441 85.3182 832.753 85.8977 831.344 85.8977H829.673ZM854.19 86.1818C854.19 82.375 851.826 80.2045 848.741 80.2045C845.638 80.2045 843.292 82.375 843.292 86.1818C843.292 89.9716 845.638 92.1591 848.741 92.1591C851.826 92.1591 854.19 89.9886 854.19 86.1818ZM851.695 86.1818C851.695 88.6477 850.525 89.983 848.741 89.983C846.951 89.983 845.786 88.6477 845.786 86.1818C845.786 83.7159 846.951 82.3807 848.741 82.3807C850.525 82.3807 851.695 83.7159 851.695 86.1818ZM866.785 80.3636H864.336V87.6818H864.234L859.211 80.3636H857.052V92H859.512V84.6761H859.597L864.66 92H866.785V80.3636ZM756 111C759.545 111 761.545 108.795 761.545 105.159C761.545 101.545 759.545 99.3636 756.159 99.3636H752.409V111H756ZM753.818 109.75V100.614H756.068C758.795 100.614 760.182 102.341 760.182 105.159C760.182 108 758.795 109.75 755.909 109.75H753.818ZM774.767 105.182C774.767 101.5 772.608 99.2045 769.631 99.2045C766.654 99.2045 764.495 101.5 764.495 105.182C764.495 108.864 766.654 111.159 769.631 111.159C772.608 111.159 774.767 108.864 774.767 105.182ZM773.404 105.182C773.404 108.205 771.745 109.841 769.631 109.841C767.517 109.841 765.858 108.205 765.858 105.182C765.858 102.159 767.517 100.523 769.631 100.523C771.745 100.523 773.404 102.159 773.404 105.182ZM780.29 111H781.745L784.313 101.727H784.404L786.972 111H788.427L791.608 99.3636H790.177L787.745 108.841H787.631L785.154 99.3636H783.563L781.086 108.841H780.972L778.54 99.3636H777.108L780.29 111ZM803.631 99.3636H802.245V108.523H802.131L795.768 99.3636H794.404V111H795.813V101.864H795.927L802.268 111H803.631V99.3636ZM806.855 100.614H810.514V111H811.923V100.614H815.582V99.3636H806.855V100.614ZM828.13 105.182C828.13 101.5 825.971 99.2045 822.994 99.2045C820.017 99.2045 817.858 101.5 817.858 105.182C817.858 108.864 820.017 111.159 822.994 111.159C825.971 111.159 828.13 108.864 828.13 105.182ZM826.767 105.182C826.767 108.205 825.108 109.841 822.994 109.841C820.88 109.841 819.221 108.205 819.221 105.182C819.221 102.159 820.88 100.523 822.994 100.523C825.108 100.523 826.767 102.159 826.767 105.182ZM831.54 99.3636V111H832.858V102.159H832.972L836.608 111H837.881L841.517 102.159H841.631V111H842.949V99.3636H841.267L837.312 109.023H837.176L833.222 99.3636H831.54ZM846.814 111H853.928V109.75H848.223V105.795H853.473V104.545H848.223V100.614H853.837V99.3636H846.814V111ZM857.417 111H864.53V109.75H858.826V105.795H864.076V104.545H858.826V100.614H864.439V99.3636H857.417V111ZM867.383 100.614H871.042V111H872.451V100.614H876.11V99.3636H867.383V100.614ZM879.573 111.091C880.136 111.091 880.596 110.631 880.596 110.068C880.596 109.506 880.136 109.045 879.573 109.045C879.011 109.045 878.551 109.506 878.551 110.068C878.551 110.631 879.011 111.091 879.573 111.091ZM893.588 103C893.156 100.614 891.247 99.2045 888.906 99.2045C885.929 99.2045 883.77 101.5 883.77 105.182C883.77 108.864 885.929 111.159 888.906 111.159C891.247 111.159 893.156 109.75 893.588 107.364H892.179C891.838 108.977 890.451 109.841 888.906 109.841C886.792 109.841 885.133 108.205 885.133 105.182C885.133 102.159 886.792 100.523 888.906 100.523C890.451 100.523 891.838 101.386 892.179 103H893.588ZM906.723 105.182C906.723 101.5 904.564 99.2045 901.587 99.2045C898.609 99.2045 896.45 101.5 896.45 105.182C896.45 108.864 898.609 111.159 901.587 111.159C904.564 111.159 906.723 108.864 906.723 105.182ZM905.359 105.182C905.359 108.205 903.7 109.841 901.587 109.841C899.473 109.841 897.814 108.205 897.814 105.182C897.814 102.159 899.473 100.523 901.587 100.523C903.7 100.523 905.359 102.159 905.359 105.182ZM910.132 99.3636V111H911.45V102.159H911.564L915.2 111H916.473L920.109 102.159H920.223V111H921.541V99.3636H919.859L915.905 109.023H915.769L911.814 99.3636H910.132ZM929.338 98.8182H928.111L924.361 112.75H925.588L929.338 98.8182ZM758.773 121.273H760.136C760.074 119.517 758.455 118.205 756.205 118.205C753.977 118.205 752.227 119.5 752.227 121.455C752.227 123.023 753.364 123.955 755.182 124.477L756.614 124.886C757.841 125.227 758.932 125.659 758.932 126.818C758.932 128.091 757.705 128.932 756.091 128.932C754.705 128.932 753.477 128.318 753.364 127H751.909C752.045 128.909 753.591 130.205 756.091 130.205C758.773 130.205 760.295 128.727 760.295 126.841C760.295 124.659 758.227 123.955 757.023 123.636L755.841 123.318C754.977 123.091 753.591 122.636 753.591 121.386C753.591 120.273 754.614 119.455 756.159 119.455C757.568 119.455 758.636 120.125 758.773 121.273ZM764.129 118.364H762.652L766.925 130H768.379L772.652 118.364H771.175L767.72 128.159H767.584L764.129 118.364ZM775.505 130H782.618V128.75H776.914V124.795H782.164V123.545H776.914V119.614H782.527V118.364H775.505V130ZM786.107 130H792.925V128.75H787.516V118.364H786.107V130ZM793.964 119.614H797.623V130H799.032V119.614H802.691V118.364H793.964V119.614ZM805.906 130H813.02V128.75H807.315V124.795H812.565V123.545H807.315V119.614H812.929V118.364H805.906V130ZM821.327 123.557H816.236V124.807H821.327V123.557ZM831.271 121.273H832.635C832.573 119.517 830.953 118.205 828.703 118.205C826.476 118.205 824.726 119.5 824.726 121.455C824.726 123.023 825.862 123.955 827.681 124.477L829.112 124.886C830.34 125.227 831.431 125.659 831.431 126.818C831.431 128.091 830.203 128.932 828.59 128.932C827.203 128.932 825.976 128.318 825.862 127H824.408C824.544 128.909 826.09 130.205 828.59 130.205C831.271 130.205 832.794 128.727 832.794 126.841C832.794 124.659 830.726 123.955 829.521 123.636L828.34 123.318C827.476 123.091 826.09 122.636 826.09 121.386C826.09 120.273 827.112 119.455 828.658 119.455C830.067 119.455 831.135 120.125 831.271 121.273ZM845.969 124.182C845.969 120.5 843.81 118.205 840.833 118.205C837.856 118.205 835.696 120.5 835.696 124.182C835.696 127.864 837.856 130.159 840.833 130.159C843.81 130.159 845.969 127.864 845.969 124.182ZM844.606 124.182C844.606 127.205 842.946 128.841 840.833 128.841C838.719 128.841 837.06 127.205 837.06 124.182C837.06 121.159 838.719 119.523 840.833 119.523C842.946 119.523 844.606 121.159 844.606 124.182ZM858.742 122C858.31 119.614 856.401 118.205 854.06 118.205C851.083 118.205 848.924 120.5 848.924 124.182C848.924 127.864 851.083 130.159 854.06 130.159C856.401 130.159 858.31 128.75 858.742 126.364H857.333C856.992 127.977 855.606 128.841 854.06 128.841C851.947 128.841 850.288 127.205 850.288 124.182C850.288 121.159 851.947 119.523 854.06 119.523C855.606 119.523 856.992 120.386 857.333 122H858.742ZM863.468 118.364H862.059V130H863.468V118.364ZM867.333 130H874.447V128.75H868.743V124.795H873.993V123.545H868.743V119.614H874.356V118.364H867.333V130ZM877.3 119.614H880.959V130H882.368V119.614H886.027V118.364H877.3V119.614ZM888.242 118.364L892.446 125.205V130H893.855V125.205L898.06 118.364H896.446L893.219 123.795H893.083L889.855 118.364H888.242ZM904.475 123.557H899.384V124.807H904.475V123.557ZM917.283 118.364H915.897V127.523H915.783L909.42 118.364H908.056V130H909.465V120.864H909.579L915.92 130H917.283V118.364ZM920.143 118.364L924.347 125.205V130H925.756V125.205L929.961 118.364H928.347L925.12 123.795H924.984L921.756 118.364H920.143ZM941.64 122C941.208 119.614 939.299 118.205 936.958 118.205C933.981 118.205 931.822 120.5 931.822 124.182C931.822 127.864 933.981 130.159 936.958 130.159C939.299 130.159 941.208 128.75 941.64 126.364H940.231C939.89 127.977 938.504 128.841 936.958 128.841C934.845 128.841 933.186 127.205 933.186 124.182C933.186 121.159 934.845 119.523 936.958 119.523C938.504 119.523 939.89 120.386 940.231 122H941.64Z" fill="black"/>
<path d="M529.148 223H536.381V221.233H531.256V211.364H529.148V223ZM541.358 211.364H539.25V223H541.358V211.364ZM552.476 215.08H554.624C554.266 212.795 552.289 211.205 549.715 211.205C546.669 211.205 544.385 213.443 544.385 217.193C544.385 220.875 546.567 223.159 549.777 223.159C552.658 223.159 554.721 221.307 554.721 218.307V216.909H549.999V218.557H552.681C552.647 220.216 551.539 221.267 549.789 221.267C547.84 221.267 546.505 219.807 546.505 217.17C546.505 214.551 547.863 213.097 549.743 213.097C551.147 213.097 552.101 213.847 552.476 215.08ZM557.799 223H559.907V218.057H565.299V223H567.413V211.364H565.299V216.29H559.907V211.364H557.799V223ZM570.234 213.131H573.83V223H575.921V213.131H579.518V211.364H570.234V213.131ZM591.91 211.364H589.814V219.295H589.711L584.234 211.364H582.348V223H584.456V215.074H584.552L590.035 223H591.91V211.364ZM597.355 211.364H595.247V223H597.355V211.364ZM610.24 211.364H608.144V219.295H608.041L602.564 211.364H600.678V223H602.786V215.074H602.882L608.365 223H610.24V211.364ZM621.373 215.08H623.52C623.162 212.795 621.185 211.205 618.611 211.205C615.566 211.205 613.282 213.443 613.282 217.193C613.282 220.875 615.463 223.159 618.674 223.159C621.554 223.159 623.617 221.307 623.617 218.307V216.909H618.895V218.557H621.577C621.543 220.216 620.435 221.267 618.685 221.267C616.736 221.267 615.401 219.807 615.401 217.17C615.401 214.551 616.759 213.097 618.64 213.097C620.043 213.097 620.998 213.847 621.373 215.08ZM631.193 213.131H634.789V223H636.88V213.131H640.477V211.364H631.193V213.131ZM643.395 223L644.355 220.131H648.73L649.696 223H651.946L647.843 211.364H645.241L641.145 223H643.395ZM644.923 218.438L646.497 213.75H646.588L648.162 218.438H644.923ZM654.518 223H661.751V221.233H656.626V211.364H654.518V223ZM664.621 223H666.729V219.534L668.019 218.011L671.49 223H674.024L669.484 216.585L673.984 211.364H671.411L666.871 216.71H666.729V211.364H664.621V223ZM682.75 214.562H684.779C684.739 212.597 683.063 211.205 680.586 211.205C678.142 211.205 676.307 212.58 676.313 214.636C676.313 216.307 677.5 217.267 679.415 217.761L680.739 218.102C681.995 218.42 682.824 218.812 682.83 219.716C682.824 220.71 681.881 221.375 680.506 221.375C679.188 221.375 678.165 220.784 678.08 219.562H676.006C676.091 221.875 677.813 223.176 680.523 223.176C683.313 223.176 684.932 221.784 684.938 219.733C684.932 217.716 683.267 216.795 681.517 216.381L680.426 216.108C679.472 215.881 678.438 215.477 678.449 214.506C678.455 213.631 679.239 212.989 680.557 212.989C681.813 212.989 682.642 213.574 682.75 214.562ZM689.033 221.602C689.704 221.602 690.278 221.045 690.283 220.352C690.278 219.67 689.704 219.114 689.033 219.114C688.34 219.114 687.778 219.67 687.783 220.352C687.778 221.045 688.34 221.602 689.033 221.602ZM689.033 215.83C689.704 215.83 690.278 215.273 690.283 214.58C690.278 213.898 689.704 213.341 689.033 213.341C688.34 213.341 687.778 213.898 687.783 214.58C687.778 215.273 688.34 215.83 689.033 215.83Z" fill="black"/>
<path d="M465.883 249.182H467.417C467.347 247.207 465.525 245.73 462.994 245.73C460.488 245.73 458.519 247.188 458.519 249.386C458.519 251.151 459.798 252.199 461.843 252.787L463.454 253.247C464.835 253.631 466.062 254.116 466.062 255.42C466.062 256.852 464.681 257.798 462.866 257.798C461.306 257.798 459.926 257.108 459.798 255.625H458.161C458.315 257.773 460.053 259.23 462.866 259.23C465.883 259.23 467.596 257.568 467.596 255.446C467.596 252.991 465.269 252.199 463.914 251.841L462.585 251.483C461.613 251.227 460.053 250.716 460.053 249.31C460.053 248.057 461.204 247.136 462.943 247.136C464.528 247.136 465.73 247.891 465.883 249.182ZM472.222 259H473.705L475.853 251.457H476.006L478.154 259H479.637L482.629 249.182H481.043L478.921 256.673H478.819L476.748 249.182H475.137L473.04 256.699H472.938L470.816 249.182H469.231L472.222 259ZM485.594 262.656C486.956 262.656 487.921 261.934 488.484 260.432L492.664 249.207L491.015 249.182L488.305 257.006H488.202L485.492 249.182H483.856L487.487 259.051L487.205 259.818C486.668 261.288 485.978 261.429 484.879 261.148L484.495 262.477C484.648 262.554 485.083 262.656 485.594 262.656ZM495.785 249.182H494.046L497.166 254.091L494.046 259H495.785L498.137 255.19L500.49 259H502.228L499.058 254.091L502.228 249.182H500.49L498.137 253.196L495.785 249.182Z" fill="black"/>
<path d="M535.335 274H542.136L546.585 259.375H546.79L551.239 274H558.04L565.761 247.818H557.835L554.256 263.977H554.051L549.807 247.818H543.568L539.324 263.926H539.119L535.54 247.818H527.614L535.335 274ZM568.963 274H576.07V263.773H585.48V274H592.588V247.818H585.48V258.045H576.07V247.818H568.963V274ZM595.789 247.818L605.402 265.767V274H612.459V265.767L622.073 247.818H614.147L609.033 258.455H608.828L603.715 247.818H595.789ZM647.475 256H654.276C654.251 250.861 650.288 247.46 643.947 247.46C637.721 247.46 633.323 250.81 633.362 255.795C633.349 259.886 636.187 262.162 640.828 263.159L643.436 263.722C646.35 264.361 647.348 265.089 647.373 266.278C647.348 267.57 646.171 268.477 643.896 268.477C641.173 268.477 639.562 267.199 639.447 264.795H632.697C632.723 271.366 637.171 274.307 643.998 274.307C650.633 274.307 654.609 271.443 654.634 266.278C654.609 262.29 652.231 259.49 646.453 258.25L644.305 257.79C641.825 257.266 640.713 256.537 640.776 255.284C640.789 254.134 641.748 253.29 643.947 253.29C646.248 253.29 647.335 254.3 647.475 256ZM665.397 247.818H657.369L666.011 274H675.727L684.369 247.818H676.341L670.971 266.278H670.767L665.397 247.818ZM687.791 274H706.609V268.273H694.899V263.773H705.688V258.045H694.899V253.545H706.66V247.818H687.791V274ZM711.085 274H728.778V268.273H718.193V247.818H711.085V274ZM728.707 253.545H736.582V274H743.587V253.545H751.462V247.818H728.707V253.545ZM755.038 274H773.856V268.273H762.145V263.773H772.935V258.045H762.145V253.545H773.907V247.818H755.038V274ZM783.599 265.818H789.633V265.205C789.633 263.172 790.592 262.149 792.446 261.062C794.939 259.605 796.639 257.777 796.639 254.67C796.639 249.864 792.586 247.46 787.127 247.46C782.154 247.46 778.025 249.812 777.974 255.438H784.52C784.52 253.967 785.696 252.932 787.076 252.932C788.355 252.932 789.377 253.801 789.377 255.08C789.377 256.511 788.137 257.393 786.514 258.455C784.609 259.695 783.599 260.999 783.599 265.205V265.818ZM786.718 274.409C788.598 274.409 790.272 272.824 790.298 270.83C790.272 268.886 788.598 267.301 786.718 267.301C784.737 267.301 783.113 268.886 783.139 270.83C783.113 272.824 784.737 274.409 786.718 274.409Z" fill="#FF3E00"/>
<path d="M535.335 340H542.136L546.585 325.375H546.79L551.239 340H558.04L565.761 313.818H557.835L554.256 329.977H554.051L549.807 313.818H543.568L539.324 329.926H539.119L535.54 313.818H527.614L535.335 340ZM568.963 340H587.781V334.273H576.07V329.773H586.86V324.045H576.07V319.545H587.832V313.818H568.963V340ZM592.257 340H604.581C610.27 340 613.785 336.893 613.785 332.585C613.785 328.891 611.062 326.474 607.7 326.347V326.091C610.73 325.49 612.763 323.253 612.763 320.364C612.763 316.375 609.592 313.818 603.609 313.818H592.257V340ZM599.365 334.324V328.801H602.791C604.952 328.801 606.268 329.824 606.268 331.665C606.268 333.416 605.079 334.324 602.689 334.324H599.365ZM599.365 324.403V319.392H602.382C604.146 319.392 605.45 320.287 605.45 321.898C605.45 323.509 604.146 324.403 602.28 324.403H599.365ZM632.077 340L633.585 334.989H642.227L643.736 340H651.406L642.764 313.818H633.049L624.406 340H632.077ZM635.196 329.67L637.804 321.028H638.009L640.617 329.67H635.196ZM670.374 313.818V330.795C670.374 332.739 668.788 334.068 666.129 334.068C663.521 334.068 661.936 332.739 661.936 330.795V313.818H654.828V331.102C654.828 337.085 659.226 340.307 666.129 340.307C672.982 340.307 677.43 337.085 677.43 331.102V313.818H670.374ZM691.782 340C699.76 340 704.822 335.091 704.822 326.909C704.822 318.727 699.76 313.818 691.68 313.818H681.709V340H691.782ZM688.817 333.966V319.852H691.322C695.413 319.852 697.663 321.438 697.663 326.909C697.663 332.381 695.413 333.966 691.527 333.966H688.817ZM716.119 313.818H709.011V340H716.119V313.818ZM745.751 326.909C745.751 318.165 740.126 313.46 733.018 313.46C725.859 313.46 720.285 318.165 720.285 326.909C720.285 335.602 725.859 340.358 733.018 340.358C740.126 340.358 745.751 335.653 745.751 326.909ZM738.439 326.909C738.439 331.614 736.547 334.17 733.018 334.17C729.49 334.17 727.598 331.614 727.598 326.909C727.598 322.205 729.49 319.648 733.018 319.648C736.547 319.648 738.439 322.205 738.439 326.909ZM764.813 340L766.321 334.989H774.963L776.472 340H784.142L775.5 313.818H765.784L757.142 340H764.813ZM767.932 329.67L770.54 321.028H770.745L773.353 329.67H767.932ZM787.564 340H794.672V332.227H798.61C804.58 332.227 808.581 328.712 808.581 323.074C808.581 317.5 804.682 313.818 798.865 313.818H787.564V340ZM794.672 326.705V319.494H797.178C799.671 319.494 801.166 320.824 801.166 323.074C801.166 325.311 799.671 326.705 797.178 326.705H794.672ZM819.197 313.818H812.089V340H819.197V313.818ZM830.42 336.42H825.102V337.852C825.102 341.33 823.926 344.973 823.517 346.392H827.863C828.477 344.973 830.049 341.547 830.318 337.852L830.42 336.42ZM542.801 364H549.602C549.577 358.861 545.614 355.46 539.273 355.46C533.047 355.46 528.649 358.81 528.688 363.795C528.675 367.886 531.513 370.162 536.153 371.159L538.761 371.722C541.676 372.361 542.673 373.089 542.699 374.278C542.673 375.57 541.497 376.477 539.222 376.477C536.499 376.477 534.888 375.199 534.773 372.795H528.023C528.048 379.366 532.497 382.307 539.324 382.307C545.959 382.307 549.935 379.443 549.96 374.278C549.935 370.29 547.557 367.49 541.778 366.25L539.631 365.79C537.151 365.266 536.038 364.537 536.102 363.284C536.115 362.134 537.074 361.29 539.273 361.29C541.574 361.29 542.661 362.3 542.801 364ZM560.723 355.818H552.695L561.337 382H571.053L579.695 355.818H571.666L566.297 374.278H566.092L560.723 355.818ZM599.24 364.46H606.425C605.875 359.206 601.107 355.46 594.919 355.46C587.862 355.46 582.135 360.318 582.135 368.96C582.135 377.244 587.326 382.358 594.97 382.358C601.823 382.358 606.732 378.165 606.732 371.006V367.375H595.124V372.438H599.88C599.816 374.713 598.205 376.17 595.022 376.17C591.34 376.17 589.448 373.46 589.448 368.858C589.448 364.32 591.493 361.648 595.073 361.648C597.297 361.648 598.806 362.67 599.24 364.46ZM625.06 364H631.861C631.835 358.861 627.872 355.46 621.531 355.46C615.305 355.46 610.908 358.81 610.946 363.795C610.933 367.886 613.771 370.162 618.412 371.159L621.02 371.722C623.935 372.361 624.932 373.089 624.957 374.278C624.932 375.57 623.756 376.477 621.48 376.477C618.757 376.477 617.146 375.199 617.031 372.795H610.281C610.307 379.366 614.756 382.307 621.582 382.307C628.217 382.307 632.193 379.443 632.219 374.278C632.193 370.29 629.815 367.49 624.037 366.25L621.889 365.79C619.409 365.266 618.297 364.537 618.361 363.284C618.374 362.134 619.332 361.29 621.531 361.29C623.832 361.29 624.919 362.3 625.06 364ZM642.777 378.42H637.459V379.852C637.459 383.33 636.283 386.973 635.874 388.392H640.22C640.834 386.973 642.406 383.547 642.675 379.852L642.777 378.42ZM661.018 382L662.526 376.989H671.168L672.677 382H680.347L671.705 355.818H661.989L653.347 382H661.018ZM664.137 371.67L666.745 363.028H666.949L669.557 371.67H664.137ZM706.422 355.818H699.314V369.523H699.11L689.803 355.818H683.769V382H690.877V368.244H691.03L700.49 382H706.422V355.818ZM720.758 382C728.736 382 733.798 377.091 733.798 368.909C733.798 360.727 728.736 355.818 720.656 355.818H710.684V382H720.758ZM717.792 375.966V361.852H720.298C724.389 361.852 726.639 363.438 726.639 368.909C726.639 374.381 724.389 375.966 720.503 375.966H717.792ZM760.172 364H766.973C766.948 358.861 762.985 355.46 756.644 355.46C750.418 355.46 746.02 358.81 746.059 363.795C746.046 367.886 748.884 370.162 753.525 371.159L756.132 371.722C759.047 372.361 760.044 373.089 760.07 374.278C760.044 375.57 758.868 376.477 756.593 376.477C753.87 376.477 752.259 375.199 752.144 372.795H745.394C745.419 379.366 749.868 382.307 756.695 382.307C763.33 382.307 767.306 379.443 767.331 374.278C767.306 370.29 764.928 367.49 759.15 366.25L757.002 365.79C754.522 365.266 753.409 364.537 753.473 363.284C753.486 362.134 754.445 361.29 756.644 361.29C758.945 361.29 760.032 362.3 760.172 364ZM778.094 355.818H770.066L778.708 382H788.424L797.066 355.818H789.037L783.668 374.278H783.464L778.094 355.818ZM800.487 382H819.306V376.273H807.595V371.773H818.385V366.045H807.595V361.545H819.357V355.818H800.487V382ZM823.782 382H841.475V376.273H830.89V355.818H823.782V382ZM841.404 361.545H849.279V382H856.284V361.545H864.159V355.818H841.404V361.545ZM867.734 382H886.553V376.273H874.842V371.773H885.632V366.045H874.842V361.545H886.604V355.818H867.734V382ZM899.313 355.818H892.154L892.819 373.818H898.648L899.313 355.818ZM895.733 382.409C897.613 382.409 899.287 380.824 899.313 378.83C899.287 376.886 897.613 375.301 895.733 375.301C893.752 375.301 892.128 376.886 892.154 378.83C892.128 380.824 893.752 382.409 895.733 382.409Z" fill="#FF3E00"/>
<path d="M462.789 317C462.303 314.315 460.156 312.73 457.522 312.73C454.173 312.73 451.744 315.312 451.744 319.455C451.744 323.597 454.173 326.179 457.522 326.179C460.156 326.179 462.303 324.594 462.789 321.909H461.204C460.82 323.724 459.261 324.696 457.522 324.696C455.144 324.696 453.278 322.855 453.278 319.455C453.278 316.054 455.144 314.213 457.522 314.213C459.261 314.213 460.82 315.185 461.204 317H462.789ZM468.036 326.23C469.749 326.23 470.643 325.31 470.95 324.67H471.027V326H472.536V319.531C472.536 316.412 470.158 316.054 468.905 316.054C467.422 316.054 465.734 316.565 464.967 318.355L466.399 318.866C466.732 318.151 467.518 317.384 468.956 317.384C470.343 317.384 471.027 318.119 471.027 319.378V319.429C471.027 320.158 470.286 320.094 468.496 320.324C466.674 320.56 464.686 320.963 464.686 323.213C464.686 325.131 466.169 326.23 468.036 326.23ZM468.266 324.875C467.064 324.875 466.195 324.338 466.195 323.29C466.195 322.139 467.243 321.781 468.419 321.628C469.058 321.551 470.771 321.372 471.027 321.065V322.446C471.027 323.673 470.055 324.875 468.266 324.875ZM476.797 312.909H475.289V326H476.797V312.909ZM487.589 316.182H485.952L483.242 324.006H483.14L480.43 316.182H478.793L482.424 326H483.958L487.589 316.182ZM489.58 326H491.088V316.182H489.58V326ZM490.347 314.545C490.935 314.545 491.421 314.085 491.421 313.523C491.421 312.96 490.935 312.5 490.347 312.5C489.759 312.5 489.273 312.96 489.273 313.523C489.273 314.085 489.759 314.545 490.347 314.545ZM495.36 320.094C495.36 318.381 496.421 317.409 497.866 317.409C499.265 317.409 500.116 318.323 500.116 319.864V326H501.624V319.761C501.624 317.256 500.288 316.054 498.3 316.054C496.817 316.054 495.897 316.719 495.437 317.716H495.309V316.182H493.851V326H495.36V320.094ZM412.529 345H414.114V340.756L415.75 338.915L420.301 345H422.219L416.722 337.815L422.219 331.909H420.148L414.267 338.403H414.114V331.909H412.529V345ZM424.681 345H426.19V335.182H424.681V345ZM425.449 333.545C426.037 333.545 426.522 333.085 426.522 332.523C426.522 331.96 426.037 331.5 425.449 331.5C424.86 331.5 424.375 331.96 424.375 332.523C424.375 333.085 424.86 333.545 425.449 333.545ZM428.953 348.682H430.461V343.491H430.589C430.922 344.028 431.561 345.205 433.453 345.205C435.907 345.205 437.621 343.236 437.621 340.116C437.621 337.023 435.907 335.054 433.427 335.054C431.51 335.054 430.922 336.23 430.589 336.741H430.41V335.182H428.953V348.682ZM430.436 340.091C430.436 337.892 431.407 336.409 433.248 336.409C435.166 336.409 436.112 338.02 436.112 340.091C436.112 342.188 435.14 343.849 433.248 343.849C431.433 343.849 430.436 342.315 430.436 340.091ZM439.922 348.682H441.43V343.491H441.558C441.89 344.028 442.53 345.205 444.422 345.205C446.876 345.205 448.589 343.236 448.589 340.116C448.589 337.023 446.876 335.054 444.396 335.054C442.479 335.054 441.89 336.23 441.558 336.741H441.379V335.182H439.922V348.682ZM441.405 340.091C441.405 337.892 442.376 336.409 444.217 336.409C446.135 336.409 447.081 338.02 447.081 340.091C447.081 342.188 446.109 343.849 444.217 343.849C442.402 343.849 441.405 342.315 441.405 340.091ZM455.007 345.205C457.001 345.205 458.459 344.207 458.919 342.724L457.461 342.315C457.078 343.338 456.189 343.849 455.007 343.849C453.236 343.849 452.015 342.705 451.945 340.602H459.072V339.963C459.072 336.307 456.899 335.054 454.854 335.054C452.194 335.054 450.43 337.151 450.43 340.168C450.43 343.185 452.169 345.205 455.007 345.205ZM451.945 339.298C452.047 337.771 453.128 336.409 454.854 336.409C456.49 336.409 457.538 337.636 457.538 339.298H451.945ZM461.367 345H462.876V338.787C462.876 337.457 463.924 336.486 465.356 336.486C465.758 336.486 466.174 336.562 466.276 336.588V335.054C466.104 335.041 465.707 335.028 465.483 335.028C464.307 335.028 463.285 335.693 462.927 336.665H462.824V335.182H461.367V345ZM468.064 345H469.573V338.864C469.573 337.425 470.621 336.409 471.797 336.409C472.941 336.409 473.74 337.157 473.74 338.276V345H475.275V338.608C475.275 337.342 476.067 336.409 477.448 336.409C478.522 336.409 479.442 336.978 479.442 338.429V345H480.951V338.429C480.951 336.121 479.711 335.054 477.959 335.054C476.553 335.054 475.524 335.7 475.019 336.716H474.917C474.431 335.668 473.574 335.054 472.283 335.054C471.005 335.054 470.059 335.668 469.65 336.716H469.522V335.182H468.064V345ZM486.598 345.23C488.311 345.23 489.206 344.31 489.513 343.67H489.589V345H491.098V338.531C491.098 335.412 488.72 335.054 487.467 335.054C485.984 335.054 484.297 335.565 483.53 337.355L484.962 337.866C485.294 337.151 486.08 336.384 487.518 336.384C488.906 336.384 489.589 337.119 489.589 338.378V338.429C489.589 339.158 488.848 339.094 487.058 339.324C485.237 339.56 483.249 339.963 483.249 342.213C483.249 344.131 484.732 345.23 486.598 345.23ZM486.828 343.875C485.626 343.875 484.757 343.338 484.757 342.29C484.757 341.139 485.805 340.781 486.982 340.628C487.621 340.551 489.334 340.372 489.589 340.065V341.446C489.589 342.673 488.618 343.875 486.828 343.875ZM495.36 339.094C495.36 337.381 496.421 336.409 497.866 336.409C499.265 336.409 500.116 337.323 500.116 338.864V345H501.624V338.761C501.624 336.256 500.288 335.054 498.3 335.054C496.817 335.054 495.897 335.719 495.437 336.716H495.309V335.182H493.851V345H495.36V339.094Z" fill="black"/>
<path d="M444.337 432L445.654 428.293H450.946L452.263 432H453.925L449.118 418.909H447.482L442.675 432H444.337ZM446.152 426.886L448.249 420.98H448.351L450.448 426.886H446.152ZM457.268 426.094C457.268 424.381 458.329 423.409 459.774 423.409C461.174 423.409 462.024 424.323 462.024 425.864V432H463.532V425.761C463.532 423.256 462.196 422.054 460.208 422.054C458.725 422.054 457.805 422.719 457.345 423.716H457.217V422.182H455.76V432H457.268V426.094ZM469.996 432.205C471.888 432.205 472.528 431.028 472.86 430.491H473.039V432H474.496V418.909H472.988V423.741H472.86C472.528 423.23 471.939 422.054 470.022 422.054C467.542 422.054 465.829 424.023 465.829 427.116C465.829 430.236 467.542 432.205 469.996 432.205ZM470.201 430.849C468.309 430.849 467.337 429.188 467.337 427.091C467.337 425.02 468.283 423.409 470.201 423.409C472.042 423.409 473.013 424.892 473.013 427.091C473.013 429.315 472.016 430.849 470.201 430.849ZM477.469 432H478.977V425.787C478.977 424.457 480.025 423.486 481.457 423.486C481.86 423.486 482.275 423.562 482.378 423.588V422.054C482.205 422.041 481.809 422.028 481.585 422.028C480.409 422.028 479.386 422.693 479.028 423.665H478.926V422.182H477.469V432ZM487.983 432.205C489.978 432.205 491.435 431.207 491.895 429.724L490.438 429.315C490.055 430.338 489.166 430.849 487.983 430.849C486.213 430.849 484.992 429.705 484.922 427.602H492.049V426.963C492.049 423.307 489.876 422.054 487.83 422.054C485.171 422.054 483.407 424.151 483.407 427.168C483.407 430.185 485.145 432.205 487.983 432.205ZM484.922 426.298C485.024 424.771 486.104 423.409 487.83 423.409C489.466 423.409 490.515 424.636 490.515 426.298H484.922ZM495.315 435.656C496.677 435.656 497.642 434.934 498.204 433.432L502.385 422.207L500.736 422.182L498.025 430.006H497.923L495.213 422.182H493.577L497.207 432.051L496.926 432.818C496.389 434.288 495.699 434.429 494.599 434.148L494.216 435.477C494.369 435.554 494.804 435.656 495.315 435.656ZM464.863 441.182H466.398C466.327 439.207 464.506 437.73 461.974 437.73C459.469 437.73 457.5 439.188 457.5 441.386C457.5 443.151 458.778 444.199 460.824 444.787L462.434 445.247C463.815 445.631 465.042 446.116 465.042 447.42C465.042 448.852 463.662 449.798 461.846 449.798C460.287 449.798 458.906 449.108 458.778 447.625H457.142C457.295 449.773 459.034 451.23 461.846 451.23C464.863 451.23 466.577 449.568 466.577 447.446C466.577 444.991 464.25 444.199 462.895 443.841L461.565 443.483C460.594 443.227 459.034 442.716 459.034 441.31C459.034 440.057 460.184 439.136 461.923 439.136C463.508 439.136 464.71 439.891 464.863 441.182ZM468.978 451H470.487V441.182H468.978V451ZM469.745 439.545C470.333 439.545 470.819 439.085 470.819 438.523C470.819 437.96 470.333 437.5 469.745 437.5C469.157 437.5 468.672 437.96 468.672 438.523C468.672 439.085 469.157 439.545 469.745 439.545ZM477.52 441.182H475.423V438.83H473.915V441.182H472.432V442.46H473.915V448.597C473.915 450.31 475.295 451.128 476.574 451.128C477.136 451.128 477.494 451.026 477.699 450.949L477.392 449.594C477.264 449.619 477.059 449.67 476.727 449.67C476.062 449.67 475.423 449.466 475.423 448.188V442.46H477.52V441.182ZM481.297 445.094C481.297 443.381 482.358 442.409 483.803 442.409C485.203 442.409 486.053 443.323 486.053 444.864V451H487.562V444.761C487.562 442.256 486.226 441.054 484.238 441.054C482.755 441.054 481.834 441.719 481.374 442.716H481.246V441.182H479.789V451H481.297V445.094ZM490.318 451H491.827V441.182H490.318V451ZM491.085 439.545C491.673 439.545 492.159 439.085 492.159 438.523C492.159 437.96 491.673 437.5 491.085 437.5C490.497 437.5 490.011 437.96 490.011 438.523C490.011 439.085 490.497 439.545 491.085 439.545ZM494.59 451H496.098V447.325L497.153 446.347L500.828 451H502.746L498.291 445.375L502.439 441.182H500.573L496.277 445.554H496.098V437.909H494.59V451Z" fill="black"/>
<path d="M528.688 448H546.381V442.273H535.795V421.818H528.688V448ZM574.498 434.909C574.498 426.165 568.873 421.46 561.765 421.46C554.606 421.46 549.032 426.165 549.032 434.909C549.032 443.602 554.606 448.358 561.765 448.358C568.873 448.358 574.498 443.653 574.498 434.909ZM567.186 434.909C567.186 439.614 565.293 442.17 561.765 442.17C558.237 442.17 556.345 439.614 556.345 434.909C556.345 430.205 558.237 427.648 561.765 427.648C565.293 427.648 567.186 430.205 567.186 434.909ZM595.69 430.46H602.874C602.325 425.206 597.556 421.46 591.369 421.46C584.312 421.46 578.584 426.318 578.584 434.96C578.584 443.244 583.775 448.358 591.42 448.358C598.272 448.358 603.181 444.165 603.181 437.006V433.375H591.573V438.438H596.329C596.265 440.713 594.654 442.17 591.471 442.17C587.789 442.17 585.897 439.46 585.897 434.858C585.897 430.32 587.942 427.648 591.522 427.648C593.746 427.648 595.255 428.67 595.69 430.46ZM622.941 421.818V438.795C622.941 440.739 621.356 442.068 618.696 442.068C616.088 442.068 614.503 440.739 614.503 438.795V421.818H607.395V439.102C607.395 445.085 611.793 448.307 618.696 448.307C625.549 448.307 629.998 445.085 629.998 439.102V421.818H622.941ZM641.895 421.818H633.918L641.691 434.909L633.662 448H641.742L646.191 440.227H646.395L650.844 448H658.975L650.844 434.909L658.668 421.818H650.742L646.395 429.438H646.191L641.895 421.818ZM678.631 444.42H684.358V437.824H690.955V432.097H684.358V425.5H678.631V432.097H672.034V437.824H678.631V444.42ZM718.751 430H725.552C725.527 424.861 721.564 421.46 715.223 421.46C708.997 421.46 704.599 424.81 704.637 429.795C704.625 433.886 707.463 436.162 712.103 437.159L714.711 437.722C717.626 438.361 718.623 439.089 718.649 440.278C718.623 441.57 717.447 442.477 715.172 442.477C712.449 442.477 710.838 441.199 710.723 438.795H703.973C703.998 445.366 708.447 448.307 715.274 448.307C721.909 448.307 725.885 445.443 725.91 440.278C725.885 436.29 723.507 433.49 717.728 432.25L715.581 431.79C713.101 431.266 711.988 430.537 712.052 429.284C712.065 428.134 713.024 427.29 715.223 427.29C717.524 427.29 718.611 428.3 718.751 430ZM736.673 421.818H728.645L737.287 448H747.003L755.645 421.818H747.616L742.247 440.278H742.042L736.673 421.818ZM759.066 448H777.885V442.273H766.174V437.773H776.964V432.045H766.174V427.545H777.936V421.818H759.066V448ZM782.361 448H800.054V442.273H789.469V421.818H782.361V448ZM799.983 427.545H807.858V448H814.863V427.545H822.738V421.818H799.983V427.545ZM826.313 448H845.131V442.273H833.421V437.773H844.211V432.045H833.421V427.545H845.183V421.818H826.313V448Z" fill="#FF3E00"/>
<path d="M531.155 127.351C531.209 127.442 531.252 127.536 531.284 127.632C531.321 127.728 531.361 127.854 531.404 128.01C531.426 128.063 531.444 128.125 531.461 128.194C531.648 128.81 532.004 129.284 532.529 129.616C533.054 129.948 533.654 130.114 534.328 130.114C534.682 130.114 535.025 130.053 535.357 129.929C535.694 129.801 535.97 129.611 536.184 129.359C536.404 129.102 536.513 128.791 536.513 128.427C536.513 128.111 536.401 127.817 536.176 127.544C535.956 127.27 535.681 127.027 535.349 126.813C535.022 126.593 534.569 126.323 533.991 126.001C533.311 125.626 532.759 125.294 532.336 125.005C531.913 124.716 531.554 124.373 531.26 123.977C530.965 123.575 530.818 123.123 530.818 122.619C530.818 121.998 530.992 121.487 531.34 121.085C531.694 120.678 532.143 120.383 532.69 120.201C533.241 120.014 533.822 119.92 534.433 119.92C534.958 119.92 535.48 119.984 535.999 120.113C536.524 120.242 537.022 120.426 537.493 120.667L537.598 122.957H537.1C537.035 122.834 536.961 122.638 536.875 122.37L536.794 122.137C536.612 121.613 536.296 121.216 535.847 120.948C535.402 120.675 534.888 120.539 534.304 120.539C534.004 120.539 533.702 120.59 533.397 120.691C533.091 120.793 532.834 120.951 532.625 121.165C532.422 121.374 532.32 121.634 532.32 121.945C532.32 122.234 532.427 122.504 532.641 122.756C532.856 123.008 533.121 123.238 533.437 123.447C533.753 123.65 534.189 123.907 534.746 124.218C535.458 124.614 536.034 124.965 536.473 125.27C536.918 125.57 537.295 125.934 537.606 126.363C537.922 126.791 538.08 127.276 538.08 127.817C538.08 128.486 537.895 129.046 537.525 129.496C537.156 129.94 536.677 130.267 536.088 130.476C535.504 130.685 534.883 130.789 534.224 130.789C533.635 130.789 533 130.717 532.32 130.572C531.645 130.422 531.099 130.219 530.681 129.962V127.367L531.155 127.351ZM550.851 119.92C551.858 119.92 552.782 120.145 553.622 120.595C554.463 121.045 555.13 121.685 555.623 122.515C556.121 123.34 556.37 124.293 556.37 125.375C556.37 126.435 556.113 127.378 555.599 128.202C555.09 129.022 554.402 129.659 553.534 130.114C552.667 130.564 551.719 130.789 550.69 130.789C549.742 130.789 548.856 130.572 548.031 130.138C547.207 129.704 546.543 129.083 546.039 128.275C545.541 127.466 545.292 126.529 545.292 125.463C545.292 124.29 545.555 123.286 546.079 122.451C546.61 121.615 547.298 120.986 548.144 120.563C548.995 120.134 549.898 119.92 550.851 119.92ZM551.116 130.17C551.759 130.17 552.337 129.999 552.851 129.656C553.365 129.314 553.767 128.818 554.056 128.17C554.351 127.522 554.498 126.759 554.498 125.881C554.498 124.885 554.332 123.982 554 123.174C553.668 122.36 553.202 121.717 552.602 121.246C552.008 120.774 551.33 120.539 550.57 120.539C549.943 120.539 549.37 120.702 548.851 121.029C548.337 121.35 547.927 121.832 547.622 122.475C547.316 123.117 547.164 123.891 547.164 124.796C547.164 125.803 547.333 126.716 547.67 127.536C548.007 128.355 548.476 129 549.076 129.472C549.681 129.937 550.361 130.17 551.116 130.17ZM572.941 123.021C572.871 122.951 572.796 122.855 572.716 122.732C572.635 122.603 572.558 122.472 572.483 122.338C572.467 122.311 572.424 122.239 572.354 122.121C572.285 122.003 572.22 121.902 572.161 121.816C572.103 121.73 572.046 121.661 571.993 121.607C571.634 121.248 571.235 120.981 570.796 120.804C570.362 120.627 569.904 120.539 569.422 120.539C568.726 120.539 568.075 120.721 567.47 121.085C566.87 121.444 566.388 121.969 566.024 122.659C565.665 123.35 565.486 124.17 565.486 125.118C565.486 126.087 565.66 126.936 566.008 127.664C566.362 128.387 566.86 128.947 567.502 129.343C568.15 129.734 568.903 129.929 569.76 129.929C570.488 129.929 571.133 129.779 571.696 129.48C572.263 129.174 572.702 128.727 573.013 128.138L573.407 128.194L573.334 129.713C572.751 130.039 572.076 130.302 571.31 130.5C570.549 130.693 569.84 130.789 569.181 130.789C568.132 130.789 567.184 130.572 566.337 130.138C565.491 129.704 564.825 129.083 564.337 128.275C563.85 127.466 563.606 126.521 563.606 125.439C563.606 124.416 563.855 123.484 564.353 122.643C564.851 121.803 565.558 121.139 566.474 120.651C567.39 120.164 568.447 119.92 569.647 119.92C570.745 119.92 571.859 120.14 572.989 120.579L573.318 123.005L572.941 123.021ZM583.68 128.491C583.68 128.898 583.714 129.198 583.784 129.391C583.859 129.584 583.958 129.713 584.081 129.777C584.21 129.841 584.411 129.897 584.684 129.945C585 129.999 585.281 130.069 585.527 130.154L585.511 130.58H580.169V130.162C580.324 130.093 580.464 130.045 580.587 130.018C580.715 129.986 580.876 129.954 581.069 129.921C581.31 129.889 581.487 129.844 581.599 129.785C581.711 129.721 581.797 129.581 581.856 129.367C581.92 129.153 581.952 128.813 581.952 128.347V122.306C581.952 121.867 581.915 121.543 581.84 121.334C581.765 121.125 581.666 120.991 581.543 120.932C581.425 120.873 581.248 120.828 581.013 120.796C580.82 120.764 580.659 120.732 580.531 120.699C580.407 120.667 580.276 120.611 580.137 120.531L580.153 120.121H585.479L585.495 120.539C585.383 120.582 585.222 120.627 585.013 120.675C584.718 120.75 584.483 120.825 584.306 120.9C584.129 120.975 583.979 121.093 583.856 121.254C583.738 121.409 583.68 121.623 583.68 121.896V128.491ZM601.496 130.652C601.41 130.668 601.324 130.676 601.238 130.676C601.137 130.676 600.984 130.66 600.781 130.628C600.577 130.596 600.422 130.58 600.315 130.58H592.073L592.057 130.186C592.223 130.095 592.375 130.031 592.515 129.994C592.659 129.951 592.817 129.916 592.989 129.889C593.203 129.852 593.358 129.804 593.454 129.745C593.556 129.686 593.634 129.56 593.687 129.367C593.741 129.169 593.768 128.858 593.768 128.435V122.354C593.768 121.937 593.733 121.629 593.663 121.43C593.599 121.232 593.503 121.096 593.374 121.021C593.246 120.94 593.031 120.855 592.731 120.764C592.683 120.748 592.59 120.718 592.45 120.675C592.316 120.632 592.185 120.584 592.057 120.531L592.073 120.121H600.266C600.341 120.121 600.422 120.116 600.507 120.105C600.599 120.094 600.663 120.086 600.7 120.081C600.861 120.054 601.006 120.041 601.134 120.041C601.247 120.041 601.346 120.051 601.431 120.073V122.571L601.014 122.587C600.923 122.496 600.848 122.394 600.789 122.282C600.73 122.169 600.663 122.022 600.588 121.84C600.481 121.572 600.374 121.363 600.266 121.214C600.165 121.064 600.012 120.954 599.809 120.884C599.509 120.788 599.137 120.726 598.692 120.699C598.248 120.673 597.733 120.659 597.15 120.659C596.464 120.659 595.923 120.683 595.527 120.732C595.506 120.973 595.495 121.248 595.495 121.559V124.82H597.808C598.231 124.82 598.547 124.788 598.756 124.724C598.965 124.66 599.126 124.555 599.238 124.411C599.356 124.266 599.517 124.009 599.72 123.64L599.841 123.423H600.299V126.869L599.841 126.893C599.669 126.432 599.45 126.074 599.182 125.816C598.92 125.559 598.566 125.431 598.122 125.431H595.495V128.138C595.495 128.7 595.559 129.115 595.688 129.383C595.822 129.651 596.012 129.825 596.258 129.905C596.51 129.98 596.866 130.018 597.326 130.018H598.114C598.788 130.018 599.369 129.943 599.857 129.793C600.35 129.638 600.714 129.324 600.949 128.853L601.062 128.604C601.158 128.395 601.236 128.24 601.295 128.138C601.354 128.031 601.429 127.929 601.52 127.833H602.026L601.496 130.652ZM611.608 120.715C611.115 120.715 610.724 120.737 610.435 120.78C610.248 120.807 610.076 120.882 609.921 121.005C609.771 121.128 609.64 121.267 609.527 121.422C609.42 121.578 609.289 121.787 609.134 122.049C608.973 122.333 608.834 122.547 608.716 122.692H608.346L608.547 120.073C609.431 120.11 610.572 120.129 611.969 120.129L615.102 120.121H616.155C617.236 120.121 618.112 120.1 618.781 120.057L619.038 122.7H618.653C618.573 122.603 618.49 122.483 618.404 122.338C618.318 122.188 618.262 122.092 618.235 122.049C618.021 121.669 617.82 121.372 617.633 121.157C617.451 120.943 617.234 120.817 616.982 120.78C616.8 120.753 616.615 120.737 616.428 120.732C616.246 120.721 616.015 120.715 615.737 120.715H614.508V128.644C614.508 129.056 614.577 129.364 614.717 129.568C614.861 129.766 615.049 129.9 615.279 129.97C615.515 130.039 615.863 130.103 616.323 130.162C616.323 130.35 616.318 130.489 616.307 130.58H610.989L610.973 130.162C611.064 130.13 611.206 130.087 611.399 130.034C611.715 129.937 611.964 129.846 612.146 129.761C612.328 129.675 612.478 129.544 612.596 129.367C612.719 129.19 612.781 128.949 612.781 128.644V120.715H611.608ZM635.352 120.595C635.047 120.718 634.801 120.828 634.613 120.924C634.426 121.021 634.241 121.144 634.059 121.294C633.882 121.444 633.722 121.631 633.577 121.856L630.942 125.897V128.604C630.942 128.973 630.977 129.247 631.047 129.423C631.116 129.6 631.21 129.718 631.328 129.777C631.451 129.836 631.63 129.887 631.866 129.929C632.182 129.983 632.455 130.061 632.685 130.162L632.669 130.58H627.48L627.464 130.162C627.603 130.082 627.734 130.026 627.857 129.994C627.986 129.962 628.144 129.932 628.331 129.905C628.556 129.873 628.725 129.83 628.837 129.777C628.95 129.723 629.041 129.603 629.111 129.415C629.18 129.228 629.215 128.936 629.215 128.54V126.066L626.283 121.471C626.16 121.278 625.93 121.088 625.592 120.9C625.255 120.713 624.958 120.59 624.7 120.531V120.121H629.681L629.697 120.539C629.386 120.592 629.092 120.691 628.813 120.836C628.54 120.975 628.404 121.165 628.404 121.406C628.404 121.578 628.58 121.95 628.934 122.523C629.287 123.091 629.748 123.8 630.316 124.652L630.693 125.222C630.725 125.163 630.8 125.051 630.918 124.885C632.16 123.048 632.782 121.894 632.782 121.422C632.782 121.208 632.677 121.045 632.468 120.932C632.26 120.815 631.989 120.713 631.657 120.627C631.646 120.627 631.579 120.608 631.456 120.571L631.44 120.354C631.44 120.317 631.446 120.239 631.456 120.121H635.489V120.539L635.352 120.595ZM652.838 121.816C652.698 121.591 652.554 121.412 652.404 121.278C652.254 121.144 652.104 121.042 651.954 120.973C651.804 120.903 651.603 120.825 651.352 120.74C651.111 120.659 650.923 120.592 650.789 120.539V120.121H653.593L661.152 127.937V122.884C661.152 122.376 661.08 121.912 660.935 121.495C660.876 121.323 660.796 121.189 660.694 121.093C660.592 120.997 660.482 120.927 660.365 120.884C660.247 120.841 660.089 120.796 659.891 120.748C659.859 120.737 659.776 120.715 659.642 120.683C659.513 120.646 659.395 120.6 659.288 120.547C659.288 120.408 659.296 120.266 659.312 120.121H663.546V120.555C663.396 120.624 663.24 120.691 663.08 120.756C662.689 120.927 662.418 121.069 662.268 121.181C662.119 121.294 662.011 121.471 661.947 121.712C661.888 121.947 661.856 122.335 661.851 122.876C661.851 123.15 661.845 123.554 661.835 124.089C661.829 124.496 661.824 125.005 661.819 125.616C661.813 126.221 661.811 126.93 661.811 127.744C661.811 128.098 661.843 128.623 661.907 129.319C661.961 129.908 661.99 130.352 661.995 130.652C661.894 130.69 661.762 130.709 661.602 130.709C661.43 130.709 661.278 130.69 661.144 130.652C660.758 130.181 660.319 129.68 659.826 129.15L653.48 122.475V128.114C653.48 128.473 653.526 128.834 653.617 129.198C653.66 129.38 653.737 129.522 653.85 129.624C653.962 129.721 654.083 129.79 654.211 129.833C654.345 129.876 654.525 129.919 654.75 129.962C655.06 130.01 655.29 130.074 655.44 130.154C655.44 130.294 655.432 130.435 655.416 130.58H650.886C650.875 130.484 650.87 130.339 650.87 130.146L651.239 130.05C651.582 129.964 651.852 129.881 652.05 129.801C652.254 129.721 652.428 129.589 652.573 129.407C652.723 129.225 652.811 128.976 652.838 128.66V121.816ZM680.157 120.595C679.852 120.718 679.605 120.828 679.418 120.924C679.23 121.021 679.046 121.144 678.863 121.294C678.687 121.444 678.526 121.631 678.381 121.856L675.747 125.897V128.604C675.747 128.973 675.781 129.247 675.851 129.423C675.921 129.6 676.014 129.718 676.132 129.777C676.255 129.836 676.435 129.887 676.67 129.929C676.986 129.983 677.26 130.061 677.49 130.162L677.474 130.58H672.284L672.268 130.162C672.408 130.082 672.539 130.026 672.662 129.994C672.79 129.962 672.948 129.932 673.136 129.905C673.361 129.873 673.53 129.83 673.642 129.777C673.754 129.723 673.845 129.603 673.915 129.415C673.985 129.228 674.02 128.936 674.02 128.54V126.066L671.087 121.471C670.964 121.278 670.734 121.088 670.397 120.9C670.059 120.713 669.762 120.59 669.505 120.531V120.121H674.485L674.502 120.539C674.191 120.592 673.896 120.691 673.618 120.836C673.345 120.975 673.208 121.165 673.208 121.406C673.208 121.578 673.385 121.95 673.738 122.523C674.092 123.091 674.552 123.8 675.12 124.652L675.498 125.222C675.53 125.163 675.605 125.051 675.723 124.885C676.965 123.048 677.586 121.894 677.586 121.422C677.586 121.208 677.482 121.045 677.273 120.932C677.064 120.815 676.794 120.713 676.462 120.627C676.451 120.627 676.384 120.608 676.261 120.571L676.245 120.354C676.245 120.317 676.25 120.239 676.261 120.121H680.293V120.539L680.157 120.595ZM695.997 123.021C695.927 122.951 695.852 122.855 695.772 122.732C695.691 122.603 695.614 122.472 695.539 122.338C695.523 122.311 695.48 122.239 695.41 122.121C695.341 122.003 695.276 121.902 695.217 121.816C695.159 121.73 695.102 121.661 695.049 121.607C694.69 121.248 694.291 120.981 693.852 120.804C693.418 120.627 692.96 120.539 692.478 120.539C691.782 120.539 691.131 120.721 690.526 121.085C689.926 121.444 689.444 121.969 689.08 122.659C688.721 123.35 688.542 124.17 688.542 125.118C688.542 126.087 688.716 126.936 689.064 127.664C689.418 128.387 689.916 128.947 690.558 129.343C691.206 129.734 691.959 129.929 692.816 129.929C693.544 129.929 694.189 129.779 694.752 129.48C695.319 129.174 695.758 128.727 696.069 128.138L696.463 128.194L696.39 129.713C695.807 130.039 695.132 130.302 694.366 130.5C693.605 130.693 692.896 130.789 692.237 130.789C691.188 130.789 690.24 130.572 689.393 130.138C688.547 129.704 687.881 129.083 687.393 128.275C686.906 127.466 686.662 126.521 686.662 125.439C686.662 124.416 686.911 123.484 687.409 122.643C687.907 121.803 688.614 121.139 689.53 120.651C690.446 120.164 691.503 119.92 692.703 119.92C693.801 119.92 694.915 120.14 696.045 120.579L696.374 123.005L695.997 123.021Z" fill="#060606"/>
<path d="M545.888 89.7761H551.64C551.557 84.7167 547.399 81.2236 541.078 81.2236C534.854 81.2236 530.294 84.6612 530.321 89.8177C530.307 94.0039 533.26 96.4019 538.056 97.5524L541.147 98.3286C544.238 99.0772 545.957 99.9643 545.971 101.877C545.957 103.956 543.989 105.37 540.939 105.37C537.82 105.37 535.575 103.929 535.381 101.087H529.573C529.725 107.228 534.119 110.402 541.008 110.402C547.939 110.402 552.014 107.089 552.028 101.891C552.014 97.1643 548.452 94.6554 543.517 93.5464L540.967 92.9365C538.5 92.3682 536.434 91.4534 536.476 89.4157C536.476 87.586 538.098 86.2414 541.036 86.2414C543.905 86.2414 545.666 87.5444 545.888 89.7761ZM564.707 81.6117H558.04L567.84 110H575.575L585.361 81.6117H578.707L571.832 103.18H571.569L564.707 81.6117ZM593.462 110H612.646V105.051H599.464V98.2732H611.606V93.3247H599.464V86.5603H612.591V81.6117H593.462V110ZM624.389 110H642.561V105.051H630.391V81.6117H624.389V110ZM645.422 86.5603H654.114V110H660.046V86.5603H668.737V81.6117H645.422V86.5603ZM676.09 110H695.274V105.051H682.092V98.2732H694.235V93.3247H682.092V86.5603H695.219V81.6117H676.09V110Z" fill="#060606"/>
</g>
<defs>
<filter id="filter0_d" x="456.906" y="65.0642" width="56.7674" height="32.911" filterUnits="userSpaceOnUse" color-interpolation-filters="sRGB">
<feFlood flood-opacity="0" result="BackgroundImageFix"/>
<feColorMatrix in="SourceAlpha" type="matrix" values="0 0 0 0 0 0 0 0 0 0 0 0 0 0 0 0 0 0 127 0"/>
<feOffset dy="1.13962"/>
<feGaussianBlur stdDeviation="0.56981"/>
<feColorMatrix type="matrix" values="0 0 0 0 0 0 0 0 0 0 0 0 0 0 0 0 0 0 0.25 0"/>
<feBlend mode="normal" in2="BackgroundImageFix" result="effect1_dropShadow"/>
<feBlend mode="normal" in="SourceGraphic" in2="effect1_dropShadow" result="shape"/>
</filter>
<clipPath id="clip0">
<rect width="1024" height="575" fill="white"/>
</clipPath>
</defs>
</svg>
