<svg width="400" height="400" viewBox="0 0 400 400" fill="none" xmlns="http://www.w3.org/2000/svg">
<rect width="400" height="400" fill="white"/>
<circle cx="200" cy="200" r="200" fill="#FF3E00"/>
<circle cx="200" cy="201.802" r="144.446" fill="white" stroke="black" stroke-width="3"/>
<path d="M345.946 271.407L366.615 267.972L376.703 271.781L378.548 266.896L368.46 263.086L355.22 246.847L353.131 252.38L362.596 263.512L362.496 263.776L348.035 265.874L345.946 271.407Z" fill="white"/>
<path d="M313.14 320.182L319.393 313.801L336.904 330.96L340.539 327.25L323.028 310.091L329.281 303.71L326.146 300.638L310.005 317.11L313.14 320.182Z" fill="white"/>
<path d="M268.465 374.818L285.568 366.744L283.693 362.774L271.326 368.613L267.957 361.479L279.342 356.104L277.468 352.134L266.083 357.509L262.733 350.413L274.998 344.622L273.124 340.653L256.124 348.679L268.465 374.818Z" fill="white"/>
<path d="M203.435 360.36H198.198V389.266H203.435V360.36Z" fill="white"/>
<path d="M148.713 363.017C150.859 356.899 148.17 351.326 142.471 348.396C135.756 344.943 128.18 347.238 123.907 355.547C119.641 363.844 122.114 371.321 128.892 374.806C135.005 377.949 141.092 376.08 144.331 371.54L139.65 369.101C137.511 371.81 134.179 372.24 131.104 370.658C126.937 368.516 125.556 363.854 128.589 357.955C131.571 352.155 136.192 350.453 140.397 352.615C143.523 354.222 145.06 357.25 144.019 360.603L148.713 363.017Z" fill="white"/>
<path d="M83.4057 331.139C90.997 325.692 92.1449 317.85 87.7261 311.692C83.2991 305.522 75.5106 304.11 67.9193 309.557C60.3393 314.997 59.1718 322.835 63.5988 329.005C68.0176 335.163 75.8143 336.586 83.4057 331.139ZM80.3363 326.862C74.9926 330.696 70.1658 330.095 67.4174 326.265C64.6773 322.446 65.6448 317.669 70.9886 313.835C76.3323 310 81.1673 310.613 83.9075 314.432C86.6559 318.262 85.6801 323.027 80.3363 326.862Z" fill="white"/>
<path d="M45.3043 265.345L46.839 270.145C51.4604 268.563 53.4859 263.544 51.6115 257.682C49.7629 251.902 45.121 248.6 40.2587 250.169C36.3063 251.433 34.9328 254.97 35.212 259.874L35.4071 263.264C35.6043 266.476 35.3044 268.736 33.1711 269.433C30.8142 270.171 28.5277 268.443 27.4873 265.189C26.4899 262.071 27.1142 259.204 29.9401 258.078L28.371 253.171C22.9639 255.122 21.1879 260.18 23.2386 266.593C25.3494 273.193 29.8683 275.972 34.7257 274.433C39.4939 272.893 40.4121 268.258 40.0694 263.804L39.8893 261.016C39.7048 258.586 39.8769 255.834 42.1843 255.125C44.259 254.477 46.3713 255.846 47.3687 258.965C48.3188 261.936 47.5618 264.342 45.3043 265.345Z" fill="white"/>
<path d="M334.244 114.515L343.152 131.199L347.024 129.132L340.583 117.067L347.543 113.351L353.472 124.457L357.344 122.39L351.415 111.283L358.337 107.587L364.726 119.553L368.598 117.485L359.743 100.901L334.244 114.515Z" fill="white"/>
<path d="M301.557 46.6575L308.752 51.9542L294.218 71.6976L298.401 74.7769L312.935 55.0335L320.13 60.3302L322.732 56.7953L304.16 43.1226L301.557 46.6575Z" fill="white"/>
<path d="M222.768 43.5171L240.518 46.3058L241.199 41.9694L228.622 39.9935L232.427 15.7742L227.254 14.9614L222.768 43.5171Z" fill="white"/>
<path d="M151.111 49.1036L169.296 43.9066L168.089 39.686L154.939 43.4441L152.771 35.858L164.876 32.3985L163.67 28.178L151.565 31.6374L149.409 24.092L162.45 20.3649L161.244 16.1444L143.168 21.3103L151.111 49.1036Z" fill="white"/>
<path d="M78.1662 57.2624L73.8751 61.0815L100.694 75.9084L105.523 71.6106L93.9177 43.2432L89.6161 47.0717L99.1336 69.0594L98.9122 69.2565L78.1662 57.2624Z" fill="white"/>
<path d="M43.0836 108.093L45.3258 103.58C40.9084 101.496 35.9589 103.686 33.2205 109.197C30.5199 114.632 31.5501 120.235 36.132 122.495C39.8481 124.342 43.2969 122.762 46.5131 119.048L48.7349 116.48C50.8307 114.038 52.6198 112.626 54.6359 113.612C56.8416 114.724 57.2778 117.557 55.7579 120.616C54.3008 123.548 51.8558 125.17 49.044 124.01L46.7516 128.623C51.9902 130.99 56.7878 128.598 59.7836 122.569C62.8674 116.363 61.5606 111.222 57.0039 108.942C52.5104 106.725 48.6226 109.411 45.7655 112.845L43.9529 114.971C42.3921 116.843 40.3516 118.698 38.2028 117.598C36.2625 116.619 35.701 114.165 37.158 111.232C38.5461 108.439 40.7649 107.24 43.0836 108.093Z" fill="white"/>
<circle cx="26.1265" cy="188.911" r="4.5045" fill="white"/>
<circle cx="372.072" cy="188.911" r="4.5045" fill="white"/>
<path d="M274.989 121.071C254.668 91.7603 214.535 83.0733 185.52 101.708L134.562 134.447C127.685 138.802 121.783 144.554 117.235 151.338C112.687 158.121 109.591 165.786 108.146 173.843C105.709 187.443 107.841 201.473 114.203 213.713C109.842 220.382 106.871 227.874 105.469 235.736C104.014 243.971 104.206 252.417 106.035 260.576C107.863 268.735 111.292 276.444 116.118 283.248C136.438 312.559 176.571 321.246 205.586 302.612L256.544 270.011C263.414 265.647 269.309 259.891 273.856 253.11C278.404 246.328 281.504 238.667 282.96 230.614C285.388 217.019 283.25 202.996 276.884 190.764C281.242 184.092 284.219 176.602 285.637 168.742C287.088 160.506 286.894 152.061 285.065 143.903C283.237 135.744 279.811 128.035 274.989 121.229" fill="#FF3E00"/>
<path d="M181.478 284.835C173.417 286.904 164.909 286.477 157.101 283.613C149.293 280.748 142.561 275.584 137.815 268.817C134.9 264.784 132.831 260.216 131.728 255.381C130.626 250.546 130.512 245.542 131.395 240.663C131.684 239.076 132.091 237.512 132.612 235.984L133.574 233.071L136.205 235.013C142.252 239.379 149.003 242.701 156.171 244.838L158.135 245.401L157.958 247.342C157.769 250.004 158.526 252.648 160.098 254.817C161.53 256.853 163.559 258.406 165.911 259.267C168.262 260.128 170.824 260.256 173.252 259.633C174.362 259.338 175.421 258.88 176.393 258.274L227.517 226.004C228.773 225.222 229.849 224.19 230.677 222.973C231.506 221.756 232.068 220.381 232.327 218.936C232.589 217.464 232.55 215.955 232.213 214.497C231.875 213.04 231.247 211.664 230.364 210.451C228.931 208.415 226.903 206.863 224.551 206.002C222.199 205.141 219.637 205.013 217.21 205.636C216.098 205.927 215.039 206.386 214.068 206.995L194.436 219.325C191.225 221.338 187.723 222.857 184.05 223.829C176.002 225.885 167.511 225.454 159.719 222.594C151.926 219.733 145.207 214.581 140.465 207.83C137.559 203.794 135.498 199.225 134.403 194.39C133.307 189.555 133.199 184.553 134.084 179.676C134.951 174.89 136.819 170.335 139.567 166.303C142.316 162.271 145.885 158.851 150.046 156.26L201.327 123.991C204.519 121.981 208.001 120.462 211.654 119.486C219.712 117.416 228.218 117.842 236.023 120.707C243.828 123.571 250.556 128.737 255.297 135.504C258.215 139.535 260.288 144.103 261.394 148.938C262.5 153.773 262.617 158.778 261.737 163.658C261.431 165.254 261.024 166.83 260.52 168.376L259.538 171.289L256.927 169.347C250.867 164.948 244.096 161.599 236.901 159.445L234.938 158.882L235.115 156.94C235.342 154.265 234.604 151.596 233.034 149.406C231.593 147.406 229.57 145.886 227.234 145.05C224.898 144.215 222.36 144.102 219.958 144.727C218.847 145.019 217.788 145.477 216.817 146.086L165.595 178.298C164.344 179.08 163.271 180.11 162.443 181.323C161.615 182.536 161.05 183.906 160.785 185.346C160.528 186.822 160.57 188.333 160.907 189.792C161.244 191.252 161.87 192.631 162.748 193.85C164.174 195.868 166.186 197.409 168.518 198.269C170.85 199.129 173.391 199.267 175.804 198.666C176.913 198.366 177.971 197.909 178.945 197.306L198.578 184.997C201.787 182.961 205.298 181.434 208.984 180.473C217.039 178.398 225.545 178.819 233.351 181.681C241.156 184.542 247.885 189.705 252.627 196.472C255.543 200.503 257.615 205.071 258.721 209.906C259.827 214.74 259.944 219.745 259.067 224.625C258.2 229.412 256.333 233.967 253.584 237.999C250.836 242.031 247.267 245.451 243.105 248.041L191.883 280.311C188.666 282.331 185.158 283.856 181.478 284.835Z" fill="white"/>
<g filter="url(#filter0_d)">
<path d="M155.332 92.435C159.244 91.4075 166.936 92.5242 172.78 95.1716L170.744 106.924C170.744 106.924 161.349 103.402 158.108 99.0249C157.19 97.7846 159.303 95.2583 159.303 95.2583C159.303 95.2583 156.103 95.3693 155.781 98.1273C155.46 100.885 157.18 103.451 170.972 108.193C184.764 112.936 183.663 118.969 195.038 126.527C207.139 134.57 216.713 139.034 230.709 145.845C244.704 152.655 263.84 154.945 272.633 154.325C281.164 153.723 288.3 151.66 292.882 150.297L297.463 130.481L299.568 130.852L300.311 126.641C312.944 128.869 323.721 141.625 321.121 156.363C316.987 179.804 289.65 180.536 270.7 177.593C224.379 169.423 142.98 120.111 146.423 100.585C147.723 93.2158 151.42 93.4626 155.332 92.435Z" fill="black"/>
</g>
<path d="M172 109.438L175.528 89.4355L295.172 131.162L297.278 131.533C298.692 143.626 292.697 151.35 292.697 151.35C273.81 159.959 242.57 152.45 230.523 146.897C209.686 137.293 185.067 121.512 172 109.438Z" fill="#FF3E00"/>
<path d="M181.346 68.752C175.217 85.039 174.599 94.6995 174.599 94.6995C181.721 103.554 216.557 128.152 249.099 133.891C271.207 137.79 285.079 139.151 297.092 132.586L298.391 125.217L302.848 99.9509C307.675 72.5792 272.19 52.2091 258.504 49.7953C251.197 48.1447 239.554 46.4532 231.132 44.9677C202.708 39.9545 187.476 52.465 181.346 68.752Z" fill="black"/>
<path d="M302.61 163.54C319.645 159.066 321.325 146.992 319.322 141.935C323.472 149.18 319.955 162.121 301.188 167.05C288.709 170.327 262.202 168.924 211.633 137.053C247.589 157.078 278.158 169.962 302.61 163.54Z" fill="white"/>
<defs>
<filter id="filter0_d" x="133" y="89.77" width="198.299" height="103.807" filterUnits="userSpaceOnUse" color-interpolation-filters="sRGB">
<feFlood flood-opacity="0" result="BackgroundImageFix"/>
<feColorMatrix in="SourceAlpha" type="matrix" values="0 0 0 0 0 0 0 0 0 0 0 0 0 0 0 0 0 0 127 0"/>
<feOffset dy="4"/>
<feGaussianBlur stdDeviation="2"/>
<feColorMatrix type="matrix" values="0 0 0 0 0 0 0 0 0 0 0 0 0 0 0 0 0 0 0.25 0"/>
<feBlend mode="normal" in2="BackgroundImageFix" result="effect1_dropShadow"/>
<feBlend mode="normal" in="SourceGraphic" in2="effect1_dropShadow" result="shape"/>
</filter>
</defs>
</svg>
