<svg width="1500" height="500" viewBox="0 0 1500 500" fill="none" xmlns="http://www.w3.org/2000/svg">
<rect width="1500" height="500" fill="white"/>
<rect y="17.1233" width="1500" height="453.196" fill="#69564F"/>
<path d="M883.567 300.748C883.722 301.012 883.847 301.284 883.94 301.564C884.049 301.844 884.165 302.209 884.29 302.66C884.352 302.816 884.406 302.994 884.453 303.196C884.997 304.985 886.031 306.361 887.555 307.325C889.079 308.289 890.82 308.771 892.779 308.771C893.805 308.771 894.8 308.592 895.764 308.234C896.744 307.861 897.545 307.309 898.167 306.578C898.804 305.832 899.123 304.93 899.123 303.873C899.123 302.955 898.796 302.1 898.143 301.307C897.506 300.514 896.705 299.807 895.741 299.185C894.793 298.547 893.479 297.762 891.8 296.829C889.825 295.741 888.223 294.777 886.995 293.937C885.767 293.098 884.725 292.103 883.87 290.952C883.015 289.786 882.587 288.472 882.587 287.01C882.587 285.207 883.092 283.722 884.103 282.556C885.129 281.374 886.435 280.519 888.021 279.99C889.623 279.446 891.31 279.174 893.082 279.174C894.606 279.174 896.122 279.361 897.63 279.734C899.154 280.107 900.6 280.643 901.968 281.343L902.272 287.99H900.826C900.639 287.632 900.421 287.065 900.172 286.287L899.939 285.611C899.411 284.087 898.493 282.937 897.187 282.159C895.897 281.366 894.404 280.97 892.709 280.97C891.838 280.97 890.96 281.118 890.074 281.413C889.187 281.708 888.441 282.167 887.835 282.789C887.244 283.395 886.948 284.15 886.948 285.051C886.948 285.891 887.259 286.676 887.881 287.407C888.503 288.138 889.273 288.806 890.19 289.413C891.108 290.004 892.375 290.75 893.992 291.652C896.06 292.802 897.731 293.821 899.006 294.707C900.297 295.578 901.393 296.635 902.295 297.879C903.212 299.123 903.671 300.53 903.671 302.1C903.671 304.044 903.134 305.669 902.062 306.975C900.989 308.265 899.597 309.214 897.887 309.82C896.192 310.426 894.388 310.73 892.476 310.73C890.766 310.73 888.923 310.52 886.948 310.1C884.989 309.665 883.403 309.074 882.191 308.327V300.794L883.567 300.748ZM972.753 279.174C975.676 279.174 978.358 279.827 980.799 281.133C983.24 282.439 985.176 284.297 986.607 286.707C988.053 289.102 988.776 291.869 988.776 295.01C988.776 298.089 988.029 300.825 986.537 303.22C985.059 305.599 983.061 307.449 980.543 308.771C978.024 310.077 975.272 310.73 972.286 310.73C969.534 310.73 966.961 310.1 964.567 308.841C962.172 307.581 960.244 305.777 958.782 303.43C957.336 301.082 956.613 298.361 956.613 295.267C956.613 291.862 957.375 288.946 958.899 286.521C960.438 284.095 962.436 282.268 964.893 281.04C967.365 279.796 969.985 279.174 972.753 279.174ZM973.522 308.934C975.388 308.934 977.068 308.436 978.56 307.441C980.053 306.446 981.219 305.008 982.059 303.126C982.914 301.245 983.341 299.029 983.341 296.479C983.341 293.587 982.859 290.968 981.895 288.62C980.931 286.256 979.579 284.391 977.837 283.022C976.111 281.654 974.144 280.97 971.937 280.97C970.117 280.97 968.454 281.444 966.945 282.393C965.453 283.325 964.263 284.725 963.377 286.591C962.491 288.456 962.048 290.703 962.048 293.331C962.048 296.254 962.537 298.905 963.517 301.284C964.497 303.663 965.857 305.536 967.598 306.905C969.355 308.257 971.33 308.934 973.522 308.934ZM1068.89 288.177C1068.69 287.974 1068.47 287.695 1068.24 287.337C1068 286.964 1067.78 286.583 1067.56 286.194C1067.51 286.116 1067.39 285.907 1067.19 285.564C1066.98 285.222 1066.8 284.927 1066.63 284.678C1066.46 284.429 1066.29 284.227 1066.14 284.072C1065.1 283.03 1063.94 282.253 1062.66 281.74C1061.4 281.226 1060.07 280.97 1058.67 280.97C1056.65 280.97 1054.76 281.499 1053.01 282.556C1051.26 283.598 1049.87 285.121 1048.81 287.127C1047.77 289.133 1047.25 291.512 1047.25 294.264C1047.25 297.078 1047.75 299.543 1048.76 301.657C1049.79 303.756 1051.23 305.381 1053.1 306.532C1054.98 307.667 1057.17 308.234 1059.65 308.234C1061.77 308.234 1063.64 307.799 1065.27 306.928C1066.92 306.042 1068.2 304.744 1069.1 303.033L1070.24 303.196L1070.03 307.604C1068.34 308.553 1066.38 309.315 1064.15 309.89C1061.95 310.45 1059.89 310.73 1057.97 310.73C1054.93 310.73 1052.17 310.1 1049.72 308.841C1047.26 307.581 1045.33 305.777 1043.91 303.43C1042.5 301.082 1041.79 298.338 1041.79 295.197C1041.79 292.227 1042.51 289.522 1043.96 287.08C1045.4 284.639 1047.46 282.711 1050.11 281.296C1052.77 279.881 1055.84 279.174 1059.33 279.174C1062.51 279.174 1065.75 279.812 1069.03 281.086L1069.99 288.13L1068.89 288.177ZM1132.07 304.059C1132.07 305.241 1132.17 306.112 1132.37 306.672C1132.59 307.231 1132.88 307.604 1133.24 307.791C1133.61 307.978 1134.19 308.141 1134.99 308.281C1135.9 308.436 1136.72 308.638 1137.43 308.887L1137.39 310.123H1121.88V308.911C1122.33 308.708 1122.73 308.568 1123.09 308.491C1123.46 308.397 1123.93 308.304 1124.49 308.211C1125.19 308.118 1125.7 307.985 1126.03 307.814C1126.36 307.628 1126.61 307.223 1126.78 306.602C1126.96 305.98 1127.06 304.992 1127.06 303.64V286.101C1127.06 284.826 1126.95 283.885 1126.73 283.279C1126.51 282.672 1126.22 282.284 1125.87 282.113C1125.52 281.942 1125.01 281.809 1124.33 281.716C1123.77 281.623 1123.3 281.53 1122.93 281.436C1122.57 281.343 1122.19 281.18 1121.79 280.947L1121.83 279.757H1137.29L1137.34 280.97C1137.01 281.094 1136.55 281.226 1135.94 281.366C1135.09 281.584 1134.4 281.802 1133.89 282.019C1133.38 282.237 1132.94 282.579 1132.58 283.046C1132.24 283.497 1132.07 284.118 1132.07 284.911V304.059ZM1220.34 310.333C1220.09 310.38 1219.84 310.403 1219.59 310.403C1219.29 310.403 1218.85 310.357 1218.26 310.263C1217.67 310.17 1217.22 310.123 1216.91 310.123H1192.98L1192.93 308.98C1193.41 308.716 1193.86 308.53 1194.26 308.421C1194.68 308.296 1195.14 308.195 1195.64 308.118C1196.26 308.009 1196.71 307.869 1196.99 307.698C1197.29 307.527 1197.51 307.161 1197.67 306.602C1197.82 306.026 1197.9 305.124 1197.9 303.896V286.241C1197.9 285.028 1197.8 284.134 1197.6 283.559C1197.41 282.983 1197.13 282.587 1196.76 282.369C1196.38 282.136 1195.76 281.887 1194.89 281.623C1194.75 281.576 1194.48 281.491 1194.08 281.366C1193.69 281.242 1193.31 281.102 1192.93 280.947L1192.98 279.757H1216.77C1216.99 279.757 1217.22 279.742 1217.47 279.71C1217.73 279.679 1217.92 279.656 1218.03 279.64C1218.49 279.563 1218.91 279.524 1219.29 279.524C1219.61 279.524 1219.9 279.555 1220.15 279.617V286.871L1218.94 286.917C1218.67 286.653 1218.46 286.357 1218.28 286.031C1218.11 285.704 1217.92 285.277 1217.7 284.748C1217.39 283.971 1217.08 283.364 1216.77 282.929C1216.47 282.494 1216.03 282.175 1215.44 281.973C1214.57 281.693 1213.49 281.514 1212.2 281.436C1210.91 281.359 1209.41 281.32 1207.72 281.32C1205.73 281.32 1204.16 281.39 1203.01 281.53C1202.95 282.229 1202.91 283.03 1202.91 283.932V293.401H1209.63C1210.86 293.401 1211.78 293.308 1212.38 293.121C1212.99 292.934 1213.46 292.631 1213.78 292.211C1214.13 291.792 1214.59 291.045 1215.18 289.972L1215.53 289.343H1216.86V299.348L1215.53 299.418C1215.03 298.081 1214.4 297.039 1213.62 296.293C1212.86 295.547 1211.83 295.173 1210.54 295.173H1202.91V303.033C1202.91 304.666 1203.1 305.871 1203.47 306.648C1203.86 307.426 1204.42 307.931 1205.13 308.164C1205.86 308.382 1206.9 308.491 1208.23 308.491H1210.52C1212.48 308.491 1214.16 308.273 1215.58 307.838C1217.01 307.387 1218.07 306.477 1218.75 305.109L1219.08 304.386C1219.36 303.78 1219.58 303.329 1219.75 303.033C1219.92 302.722 1220.14 302.427 1220.41 302.147H1221.88L1220.34 310.333ZM1281.7 281.483C1280.27 281.483 1279.13 281.545 1278.29 281.67C1277.75 281.747 1277.25 281.965 1276.8 282.323C1276.37 282.68 1275.98 283.084 1275.66 283.535C1275.35 283.986 1274.97 284.593 1274.52 285.355C1274.05 286.179 1273.64 286.801 1273.3 287.22H1272.23L1272.81 279.617C1275.38 279.726 1278.69 279.78 1282.75 279.78L1291.84 279.757H1294.9C1298.04 279.757 1300.58 279.695 1302.53 279.571L1303.27 287.244H1302.15C1301.92 286.964 1301.68 286.614 1301.43 286.194C1301.18 285.759 1301.02 285.479 1300.94 285.355C1300.32 284.251 1299.74 283.388 1299.19 282.766C1298.66 282.144 1298.03 281.778 1297.3 281.67C1296.77 281.592 1296.24 281.545 1295.69 281.53C1295.16 281.499 1294.5 281.483 1293.69 281.483H1290.12V304.503C1290.12 305.7 1290.32 306.594 1290.72 307.185C1291.14 307.76 1291.69 308.149 1292.36 308.351C1293.04 308.553 1294.05 308.739 1295.39 308.911C1295.39 309.455 1295.37 309.859 1295.34 310.123H1279.9L1279.86 308.911C1280.12 308.817 1280.53 308.693 1281.09 308.537C1282.01 308.257 1282.73 307.993 1283.26 307.744C1283.79 307.496 1284.23 307.115 1284.57 306.602C1284.93 306.088 1285.1 305.389 1285.1 304.503V281.483H1281.7ZM1382.64 281.133C1381.75 281.491 1381.04 281.809 1380.49 282.089C1379.95 282.369 1379.41 282.727 1378.88 283.162C1378.37 283.598 1377.91 284.142 1377.49 284.795L1369.84 296.526V304.386C1369.84 305.459 1369.94 306.252 1370.14 306.765C1370.34 307.278 1370.61 307.62 1370.95 307.791C1371.31 307.962 1371.83 308.11 1372.52 308.234C1373.43 308.39 1374.23 308.615 1374.9 308.911L1374.85 310.123H1359.78L1359.74 308.911C1360.14 308.677 1360.52 308.514 1360.88 308.421C1361.25 308.327 1361.71 308.242 1362.26 308.164C1362.91 308.071 1363.4 307.947 1363.72 307.791C1364.05 307.636 1364.32 307.286 1364.52 306.741C1364.72 306.197 1364.82 305.35 1364.82 304.199V297.016L1356.31 283.675C1355.95 283.116 1355.28 282.564 1354.3 282.019C1353.32 281.475 1352.46 281.118 1351.71 280.947V279.757H1366.17L1366.22 280.97C1365.32 281.125 1364.46 281.413 1363.65 281.833C1362.86 282.237 1362.47 282.789 1362.47 283.489C1362.47 283.986 1362.98 285.067 1364 286.731C1365.03 288.379 1366.37 290.439 1368.02 292.911L1369.11 294.567C1369.21 294.396 1369.42 294.069 1369.77 293.587C1373.37 288.254 1375.18 284.904 1375.18 283.535C1375.18 282.913 1374.87 282.439 1374.27 282.113C1373.66 281.771 1372.88 281.475 1371.91 281.226C1371.88 281.226 1371.69 281.172 1371.33 281.063L1371.28 280.433C1371.28 280.325 1371.3 280.099 1371.33 279.757H1383.04V280.97L1382.64 281.133Z" fill="white"/>
<path d="M915.858 189.434H933.69C933.432 173.75 920.541 162.921 900.947 162.921C881.653 162.921 867.516 173.578 867.602 189.563C867.559 202.54 876.712 209.974 891.579 213.541L901.162 215.947C910.744 218.267 916.072 221.017 916.115 226.947C916.072 233.393 909.971 237.776 900.517 237.776C890.849 237.776 883.888 233.307 883.286 224.498H865.281C865.754 243.534 879.376 253.374 900.732 253.374C922.217 253.374 934.85 243.104 934.893 226.99C934.85 212.337 923.807 204.56 908.51 201.122L900.603 199.231C892.954 197.47 886.552 194.634 886.681 188.317C886.681 182.645 891.708 178.477 900.818 178.477C909.713 178.477 915.17 182.516 915.858 189.434ZM974.198 164.125H953.529L983.909 252.128H1007.89L1038.22 164.125H1017.6L996.285 230.987H995.468L974.198 164.125ZM1063.34 252.128H1122.81V236.788H1081.94V215.775H1119.58V200.435H1081.94V179.465H1122.64V164.125H1063.34V252.128ZM1159.21 252.128H1215.54V236.788H1177.82V164.125H1159.21V252.128ZM1224.41 179.465H1251.36V252.128H1269.75V179.465H1296.69V164.125H1224.41V179.465ZM1319.48 252.128H1378.95V236.788H1338.09V215.775H1375.73V200.435H1338.09V179.465H1378.78V164.125H1319.48V252.128Z" fill="white"/>
<path d="M235.771 245.219H284.815L283.358 252.062L318.716 256.625L325.304 311.941H273.409L216.381 267.46L235.771 245.219Z" fill="white"/>
<path d="M299.774 295.333V214.184L799.48 295.333H808.022C821.977 341.93 803.751 376.482 803.751 376.482C735.415 423.462 607.285 415.595 556.033 402.108C467.385 378.779 366.364 330.19 299.774 295.333Z" fill="#FF3E00"/>
<path d="M240.333 234.384C257.441 234.384 268.115 232.298 292.946 238.659L291.234 282.52C291.234 282.52 237.482 264.608 237.482 259.476C237.482 253.31 239.982 248.352 239.982 248.352C239.982 248.352 227.184 249.781 227.184 259.476C227.184 269.171 249.247 272.329 300.782 295.974C352.318 319.618 356.284 322.029 406.283 343.877C459.48 367.121 496.241 380.752 556.035 397.836C615.829 414.92 692.707 410.649 726.875 402.107C760.022 393.82 786.668 380.752 803.752 372.21L808.023 291.062H816.565V273.978C867.817 273.978 919.069 316.688 919.069 376.481C919.069 471.581 812.017 493.431 735.417 495C547.492 495 193.001 357.464 193 278.249C193 248.352 223.225 234.384 240.333 234.384Z" fill="black"/>
<path d="M308.319 128.764C295.506 197.099 299.777 235.538 299.777 235.538C333.945 265.435 488.078 338.042 620.101 338.042C709.791 338.042 765.314 333.771 808.025 299.603V269.706V167.203C808.025 56.1568 696.691 5.05371 602.676 1.82543C508.661 -1.40284 521.869 0.634014 487.701 0.634014C372.384 0.634014 321.133 60.428 308.319 128.764Z" fill="black"/>
<path d="M851.224 417.561C915.143 388.137 913.375 339.466 901.986 320.958C923.341 346.584 918.483 399.944 848.062 432.36C801.24 453.914 688.956 460.988 467.873 370.68C623.242 424.52 759.47 459.798 851.224 417.561Z" fill="white"/>
</svg>
